<svg xmlns="http://www.w3.org/2000/svg" xmlns:xlink="http://www.w3.org/1999/xlink" width="40" zoomAndPan="magnify" viewBox="0 0 30 30.000001" height="40" preserveAspectRatio="xMidYMid meet" version="1.0"><defs><g/><clipPath id="id1"><path d="M 0.484375 0 L 29.515625 0 L 29.515625 29.03125 L 0.484375 29.03125 Z M 0.484375 0 " clip-rule="nonzero"/></clipPath><clipPath id="id2"><path d="M 8.257812 5.171875 L 22.046875 5.171875 L 22.046875 18.964844 L 8.257812 18.964844 Z M 8.257812 5.171875 " clip-rule="nonzero"/></clipPath></defs><g clip-path="url(#id1)"><path fill="#dbfbff" d="M 15 0 C 6.984375 0 0.484375 6.5 0.484375 14.515625 C 0.484375 22.53125 6.984375 29.03125 15 29.03125 C 23.015625 29.03125 29.515625 22.53125 29.515625 14.515625 C 29.515625 6.5 23.015625 0 15 0 " fill-opacity="1" fill-rule="nonzero"/></g><g clip-path="url(#id2)"><path fill="#000000" d="M 22.035156 12.171875 C 22.03125 12.160156 22.019531 12.152344 22.011719 12.15625 C 21.785156 12.207031 20.757812 12.269531 20.527344 12.25 C 20.515625 12.25 20.507812 12.253906 20.503906 12.265625 C 20.503906 12.277344 20.511719 12.285156 20.523438 12.289062 C 20.558594 12.292969 20.609375 12.292969 20.671875 12.292969 C 21.039062 12.292969 21.816406 12.238281 22.019531 12.195312 C 22.03125 12.191406 22.035156 12.179688 22.035156 12.171875 Z M 19.414062 9.941406 C 19.417969 9.945312 19.421875 9.949219 19.429688 9.949219 C 19.433594 9.949219 19.4375 9.949219 19.441406 9.949219 L 21.058594 8.992188 C 21.066406 8.984375 21.070312 8.972656 21.0625 8.964844 C 21.058594 8.953125 21.046875 8.953125 21.035156 8.957031 L 19.421875 9.914062 C 19.410156 9.917969 19.40625 9.929688 19.414062 9.941406 Z M 17.050781 8.246094 C 17.050781 8.246094 17.054688 8.246094 17.054688 8.246094 C 17.0625 8.246094 17.070312 8.238281 17.074219 8.230469 L 17.503906 6.351562 C 17.507812 6.339844 17.5 6.332031 17.488281 6.328125 C 17.480469 6.324219 17.46875 6.332031 17.464844 6.34375 L 17.035156 8.222656 C 17.035156 8.230469 17.039062 8.242188 17.050781 8.246094 Z M 19.554688 11.21875 C 19.558594 11.234375 19.574219 11.246094 19.589844 11.246094 C 19.59375 11.246094 19.597656 11.242188 19.601562 11.242188 L 21.859375 10.507812 C 21.878906 10.503906 21.890625 10.480469 21.882812 10.460938 C 21.878906 10.4375 21.855469 10.429688 21.835938 10.433594 L 19.578125 11.167969 C 19.558594 11.175781 19.546875 11.195312 19.554688 11.21875 Z M 17.972656 9.160156 C 17.976562 9.164062 17.984375 9.164062 17.988281 9.164062 C 18.003906 9.164062 18.019531 9.160156 18.023438 9.144531 C 18.484375 8.296875 19.003906 7.46875 19.566406 6.6875 C 19.578125 6.667969 19.574219 6.644531 19.554688 6.632812 C 19.539062 6.617188 19.515625 6.621094 19.5 6.640625 C 18.9375 7.429688 18.417969 8.257812 17.957031 9.109375 C 17.945312 9.128906 17.953125 9.152344 17.972656 9.160156 Z M 15.8125 8.421875 C 15.835938 8.421875 15.851562 8.40625 15.851562 8.382812 C 15.882812 7.332031 15.9375 6.265625 16.007812 5.214844 C 16.007812 5.195312 15.992188 5.175781 15.96875 5.171875 C 15.949219 5.171875 15.929688 5.1875 15.929688 5.210938 C 15.855469 6.261719 15.804688 7.328125 15.773438 8.382812 C 15.773438 8.402344 15.789062 8.421875 15.8125 8.421875 Z M 15.066406 18.382812 C 14.636719 18.472656 14.179688 18.453125 13.742188 18.328125 C 13.730469 18.324219 13.71875 18.328125 13.714844 18.339844 C 13.714844 18.351562 13.71875 18.359375 13.730469 18.363281 C 13.988281 18.441406 14.257812 18.476562 14.519531 18.476562 C 14.707031 18.476562 14.894531 18.457031 15.074219 18.421875 C 15.082031 18.417969 15.089844 18.40625 15.085938 18.398438 C 15.085938 18.386719 15.074219 18.378906 15.066406 18.382812 Z M 9.988281 10.953125 C 9.976562 10.953125 9.964844 10.960938 9.964844 10.96875 C 9.914062 11.199219 9.902344 11.4375 9.929688 11.671875 C 9.933594 11.679688 9.941406 11.6875 9.949219 11.6875 C 9.953125 11.6875 9.953125 11.6875 9.953125 11.6875 C 9.964844 11.6875 9.972656 11.675781 9.96875 11.667969 C 9.941406 11.4375 9.953125 11.203125 10.003906 10.976562 C 10.003906 10.96875 9.996094 10.957031 9.988281 10.953125 Z M 9.28125 10.433594 C 9.277344 10.445312 9.28125 10.457031 9.289062 10.460938 C 9.292969 10.460938 9.296875 10.464844 9.300781 10.464844 C 9.308594 10.464844 9.3125 10.460938 9.316406 10.453125 C 9.871094 9.355469 10.710938 8.417969 11.746094 7.746094 C 11.753906 7.738281 11.757812 7.726562 11.75 7.71875 C 11.746094 7.707031 11.734375 7.707031 11.722656 7.710938 C 10.683594 8.390625 9.839844 9.332031 9.28125 10.433594 Z M 9.1875 14.96875 C 9.179688 14.972656 9.171875 14.984375 9.179688 14.992188 C 9.578125 15.925781 10.222656 16.742188 11.039062 17.351562 C 11.042969 17.355469 11.046875 17.355469 11.050781 17.355469 C 11.058594 17.355469 11.0625 17.351562 11.066406 17.347656 C 11.074219 17.339844 11.070312 17.328125 11.0625 17.320312 C 10.25 16.714844 9.613281 15.90625 9.214844 14.976562 C 9.210938 14.96875 9.199219 14.964844 9.1875 14.96875 Z M 16.734375 18.011719 C 16.289062 18.203125 15.824219 18.34375 15.347656 18.433594 C 15.339844 18.4375 15.332031 18.445312 15.332031 18.457031 C 15.335938 18.464844 15.34375 18.472656 15.351562 18.472656 C 15.355469 18.472656 15.355469 18.472656 15.355469 18.472656 C 15.832031 18.382812 16.300781 18.238281 16.75 18.046875 C 16.757812 18.042969 16.761719 18.03125 16.757812 18.023438 C 16.753906 18.011719 16.742188 18.007812 16.734375 18.011719 Z M 12.90625 16.136719 C 12.898438 16.132812 12.886719 16.132812 12.878906 16.144531 C 12.871094 16.152344 12.875 16.164062 12.882812 16.171875 C 13.398438 16.527344 13.992188 16.78125 14.605469 16.90625 C 14.609375 16.90625 14.609375 16.90625 14.609375 16.90625 C 14.621094 16.90625 14.628906 16.902344 14.628906 16.890625 C 14.632812 16.882812 14.625 16.871094 14.613281 16.867188 C 14.007812 16.746094 13.414062 16.492188 12.90625 16.136719 Z M 11.152344 14.644531 C 11.15625 14.644531 11.160156 14.644531 11.164062 14.640625 C 11.175781 14.632812 11.175781 14.621094 11.167969 14.613281 C 10.53125 13.855469 10.109375 12.898438 9.984375 11.914062 C 9.984375 11.90625 9.972656 11.898438 9.964844 11.898438 C 9.953125 11.898438 9.945312 11.910156 9.945312 11.921875 C 10.070312 12.910156 10.496094 13.875 11.136719 14.640625 C 11.140625 14.644531 11.148438 14.644531 11.152344 14.644531 Z M 17.097656 16.910156 C 17.101562 16.910156 17.105469 16.910156 17.105469 16.910156 C 17.949219 16.609375 18.625 16.148438 19.058594 15.578125 C 19.0625 15.570312 19.0625 15.558594 19.054688 15.550781 C 19.042969 15.546875 19.03125 15.546875 19.027344 15.554688 C 18.597656 16.117188 17.929688 16.574219 17.09375 16.871094 C 17.082031 16.875 17.078125 16.886719 17.082031 16.898438 C 17.082031 16.90625 17.089844 16.910156 17.097656 16.910156 Z M 17.890625 17.105469 C 17.402344 17.59375 16.75 17.855469 16.007812 18.128906 C 15.996094 18.132812 15.992188 18.140625 15.996094 18.152344 C 16 18.160156 16.007812 18.164062 16.015625 18.164062 C 16.015625 18.164062 16.019531 18.164062 16.019531 18.164062 C 16.765625 17.890625 17.425781 17.628906 17.917969 17.132812 C 17.925781 17.125 17.925781 17.113281 17.917969 17.105469 C 17.910156 17.097656 17.898438 17.097656 17.890625 17.105469 Z M 19.816406 14.035156 C 19.804688 14.03125 19.796875 14.039062 19.792969 14.050781 C 19.722656 14.425781 19.589844 14.78125 19.402344 15.117188 C 19.398438 15.125 19.402344 15.136719 19.410156 15.140625 C 19.414062 15.144531 19.417969 15.144531 19.421875 15.144531 C 19.429688 15.144531 19.433594 15.140625 19.4375 15.132812 C 19.625 14.796875 19.757812 14.4375 19.832031 14.058594 C 19.832031 14.046875 19.828125 14.035156 19.816406 14.035156 Z M 17.542969 16.613281 C 17.546875 16.613281 17.550781 16.609375 17.550781 16.609375 C 18.457031 16.191406 19.1875 15.425781 19.5625 14.507812 C 19.566406 14.496094 19.558594 14.484375 19.550781 14.480469 C 19.539062 14.476562 19.527344 14.484375 19.523438 14.492188 C 19.15625 15.402344 18.429688 16.160156 17.535156 16.574219 C 17.527344 16.578125 17.523438 16.589844 17.527344 16.601562 C 17.53125 16.609375 17.535156 16.613281 17.542969 16.613281 Z M 11.359375 14.863281 C 11.351562 14.871094 11.351562 14.882812 11.359375 14.890625 C 12.054688 15.542969 12.84375 16.074219 13.707031 16.476562 C 14.292969 16.75 15.125 16.90625 15.902344 16.90625 C 16.148438 16.90625 16.394531 16.890625 16.625 16.855469 C 16.632812 16.855469 16.640625 16.84375 16.640625 16.835938 C 16.636719 16.824219 16.628906 16.816406 16.617188 16.816406 C 15.683594 16.953125 14.492188 16.800781 13.722656 16.441406 C 12.863281 16.042969 12.078125 15.511719 11.386719 14.863281 C 11.378906 14.855469 11.367188 14.855469 11.359375 14.863281 Z M 12.148438 18.265625 C 11.636719 18.027344 11.050781 17.753906 10.632812 17.3125 C 10.628906 17.304688 10.613281 17.304688 10.605469 17.3125 C 10.597656 17.320312 10.597656 17.332031 10.605469 17.339844 C 11.027344 17.785156 11.617188 18.058594 12.132812 18.300781 C 12.136719 18.304688 12.136719 18.304688 12.140625 18.304688 C 12.148438 18.304688 12.15625 18.300781 12.160156 18.292969 C 12.164062 18.28125 12.160156 18.269531 12.148438 18.265625 Z M 10.589844 9.433594 C 10.582031 9.425781 10.566406 9.429688 10.5625 9.441406 C 10.285156 9.933594 10.121094 10.433594 10.074219 10.925781 C 10.023438 11.453125 10.058594 11.988281 10.179688 12.507812 C 10.246094 12.78125 10.335938 13.050781 10.445312 13.308594 C 10.8125 14.160156 11.449219 14.941406 12.1875 15.449219 C 12.191406 15.453125 12.195312 15.453125 12.199219 15.453125 C 12.203125 15.453125 12.210938 15.449219 12.214844 15.445312 C 12.21875 15.4375 12.21875 15.425781 12.210938 15.417969 C 11.476562 14.914062 10.847656 14.136719 10.480469 13.292969 C 10.371094 13.039062 10.285156 12.769531 10.21875 12.5 C 10.097656 11.980469 10.0625 11.453125 10.113281 10.929688 C 10.160156 10.445312 10.324219 9.949219 10.597656 9.457031 C 10.601562 9.449219 10.597656 9.4375 10.589844 9.433594 Z M 12.390625 7.65625 C 12.394531 7.660156 12.402344 7.664062 12.410156 7.664062 C 12.410156 7.664062 12.414062 7.664062 12.417969 7.660156 C 12.734375 7.464844 13.082031 7.320312 13.445312 7.234375 C 13.453125 7.234375 13.460938 7.222656 13.457031 7.214844 C 13.457031 7.203125 13.445312 7.195312 13.433594 7.199219 C 13.066406 7.285156 12.71875 7.429688 12.398438 7.628906 C 12.390625 7.632812 12.386719 7.644531 12.390625 7.65625 Z M 10.707031 9.085938 C 10.703125 9.09375 10.707031 9.105469 10.714844 9.109375 C 10.71875 9.113281 10.722656 9.113281 10.726562 9.113281 C 10.730469 9.113281 10.738281 9.109375 10.742188 9.105469 C 11.308594 8.21875 12.210938 7.523438 13.21875 7.203125 C 13.230469 7.199219 13.234375 7.1875 13.230469 7.179688 C 13.230469 7.167969 13.21875 7.164062 13.207031 7.164062 C 12.191406 7.488281 11.28125 8.1875 10.707031 9.085938 Z M 9.101562 10.921875 C 8.855469 11.496094 8.722656 12.132812 8.71875 12.757812 C 8.71875 12.765625 8.730469 12.777344 8.738281 12.777344 C 8.75 12.777344 8.757812 12.765625 8.757812 12.757812 C 8.761719 12.136719 8.894531 11.507812 9.140625 10.9375 C 9.144531 10.929688 9.136719 10.917969 9.128906 10.914062 C 9.117188 10.910156 9.105469 10.914062 9.101562 10.921875 Z M 19.296875 15.457031 C 19.289062 15.453125 19.277344 15.457031 19.269531 15.464844 C 18.777344 16.488281 17.949219 17.347656 16.941406 17.882812 C 16.929688 17.890625 16.925781 17.902344 16.929688 17.910156 C 16.933594 17.917969 16.941406 17.921875 16.949219 17.921875 C 16.953125 17.921875 16.957031 17.921875 16.957031 17.917969 C 17.972656 17.378906 18.808594 16.515625 19.304688 15.484375 C 19.3125 15.472656 19.308594 15.460938 19.296875 15.457031 Z M 14.628906 18.589844 C 12.957031 18.609375 11.363281 17.980469 10.367188 16.910156 C 9.925781 16.4375 9.566406 15.953125 9.292969 15.460938 C 8.992188 14.921875 8.820312 14.394531 8.78125 13.890625 C 8.78125 13.882812 8.769531 13.875 8.757812 13.875 C 8.75 13.875 8.742188 13.882812 8.742188 13.894531 C 8.78125 14.40625 8.957031 14.9375 9.257812 15.480469 C 9.535156 15.972656 9.898438 16.464844 10.335938 16.933594 C 11.324219 18 12.894531 18.628906 14.546875 18.628906 C 14.574219 18.628906 14.601562 18.628906 14.628906 18.628906 C 14.640625 18.625 14.648438 18.617188 14.648438 18.605469 C 14.648438 18.597656 14.640625 18.585938 14.628906 18.589844 Z M 8.847656 14.789062 C 8.554688 13.992188 8.472656 13.183594 8.621094 12.453125 C 8.621094 12.441406 8.617188 12.429688 8.605469 12.429688 C 8.59375 12.425781 8.585938 12.433594 8.582031 12.445312 C 8.433594 13.183594 8.511719 14 8.8125 14.800781 C 9.066406 15.488281 9.472656 16.15625 10.050781 16.84375 C 10.054688 16.847656 10.058594 16.851562 10.066406 16.851562 C 10.070312 16.851562 10.074219 16.847656 10.078125 16.847656 C 10.085938 16.839844 10.085938 16.828125 10.078125 16.816406 C 9.503906 16.132812 9.101562 15.46875 8.847656 14.789062 Z M 8.703125 11.871094 C 8.707031 11.871094 8.707031 11.871094 8.707031 11.871094 C 8.71875 11.871094 8.726562 11.867188 8.726562 11.855469 C 9.035156 10.261719 9.984375 8.820312 11.332031 7.898438 C 11.339844 7.890625 11.339844 7.878906 11.335938 7.871094 C 11.328125 7.859375 11.316406 7.859375 11.308594 7.863281 C 9.953125 8.792969 9 10.246094 8.6875 11.847656 C 8.6875 11.859375 8.695312 11.871094 8.703125 11.871094 Z M 19.953125 13.65625 C 19.949219 13.621094 19.941406 13.574219 19.921875 13.558594 C 19.921875 13.558594 19.914062 13.550781 19.890625 13.554688 C 19.839844 13.5625 19.78125 13.617188 19.730469 13.699219 C 19.625 13.886719 19.539062 14.089844 19.457031 14.285156 C 19.371094 14.496094 19.28125 14.710938 19.164062 14.910156 C 18.910156 15.335938 18.617188 15.695312 18.285156 15.972656 C 17.667969 16.492188 16.871094 16.785156 16.105469 16.773438 C 15.441406 16.761719 14.875 16.714844 14.289062 16.507812 C 13.746094 16.316406 13.207031 16.035156 12.679688 15.675781 C 10.910156 14.472656 9.960938 12.511719 10.261719 10.683594 C 10.53125 9.027344 11.863281 7.707031 13.726562 7.234375 C 13.855469 7.203125 13.898438 7.15625 13.898438 7.125 C 13.894531 7.089844 13.824219 7.03125 13.675781 7.015625 C 13.636719 7.007812 13.597656 7.007812 13.558594 7.007812 C 13.414062 7.007812 13.269531 7.035156 13.144531 7.066406 C 12.152344 7.292969 11.28125 7.734375 10.550781 8.371094 C 9.449219 9.335938 8.710938 10.726562 8.476562 12.292969 C 8.34375 13.171875 8.421875 13.964844 8.714844 14.722656 C 9.039062 15.5625 9.527344 16.355469 10.128906 17.019531 C 11.277344 18.285156 13.238281 18.964844 14.90625 18.667969 C 16.519531 18.378906 17.570312 17.867188 18.410156 16.953125 C 18.941406 16.378906 19.378906 15.671875 19.710938 14.851562 C 19.726562 14.8125 19.742188 14.773438 19.757812 14.734375 C 19.882812 14.410156 20.003906 14.027344 19.953125 13.65625 Z M 20.03125 13.644531 C 20.085938 14.035156 19.960938 14.429688 19.828125 14.761719 C 19.816406 14.800781 19.800781 14.839844 19.785156 14.878906 C 19.449219 15.707031 19.007812 16.425781 18.46875 17.007812 C 17.617188 17.933594 16.554688 18.453125 14.917969 18.746094 C 14.648438 18.792969 14.371094 18.816406 14.085938 18.816406 C 13.5 18.816406 12.894531 18.714844 12.304688 18.507812 C 11.417969 18.207031 10.648438 17.707031 10.070312 17.070312 C 9.460938 16.402344 8.96875 15.597656 8.640625 14.75 C 8.34375 13.980469 8.265625 13.171875 8.398438 12.28125 C 8.636719 10.699219 9.382812 9.289062 10.496094 8.3125 C 11.238281 7.664062 12.125 7.21875 13.125 6.988281 C 13.292969 6.949219 13.488281 6.910156 13.6875 6.9375 C 13.855469 6.957031 13.96875 7.03125 13.976562 7.121094 C 13.980469 7.167969 13.953125 7.257812 13.746094 7.308594 C 11.910156 7.773438 10.605469 9.070312 10.339844 10.695312 C 10.042969 12.496094 10.976562 14.425781 12.722656 15.613281 C 13.246094 15.96875 13.78125 16.242188 14.316406 16.433594 C 14.894531 16.636719 15.449219 16.683594 16.109375 16.695312 C 16.855469 16.707031 17.628906 16.421875 18.234375 15.914062 C 18.558594 15.640625 18.847656 15.289062 19.09375 14.871094 C 19.210938 14.675781 19.296875 14.460938 19.382812 14.257812 C 19.46875 14.058594 19.554688 13.851562 19.664062 13.660156 C 19.699219 13.597656 19.773438 13.492188 19.882812 13.476562 C 19.917969 13.472656 19.945312 13.480469 19.972656 13.496094 C 20.011719 13.527344 20.023438 13.582031 20.03125 13.644531 Z M 17.246094 11.664062 L 17.222656 11.648438 C 17.054688 11.519531 16.886719 11.410156 16.71875 11.320312 C 16.585938 11.25 16.453125 11.191406 16.316406 11.144531 C 16.144531 11.210938 16.035156 11.457031 16.066406 11.738281 C 16.101562 12.054688 16.300781 12.289062 16.511719 12.265625 C 16.722656 12.242188 16.867188 11.96875 16.832031 11.652344 C 16.820312 11.542969 16.785156 11.441406 16.738281 11.359375 C 16.90625 11.53125 17.015625 11.75 17.046875 12.011719 C 17.132812 12.773438 16.515625 13.46875 15.671875 13.5625 C 14.828125 13.65625 14.078125 13.109375 13.992188 12.34375 C 13.890625 11.414062 14.21875 11.140625 14.742188 11.023438 C 14.5625 11.054688 14.378906 11.097656 14.207031 11.15625 C 13.917969 11.269531 13.621094 11.425781 13.304688 11.628906 C 13.238281 11.671875 13.171875 11.714844 13.109375 11.757812 C 13.074219 11.777344 13.042969 11.796875 13.011719 11.820312 C 12.992188 11.832031 12.972656 11.847656 12.953125 11.863281 C 12.898438 11.898438 12.84375 11.933594 12.789062 11.96875 C 12.613281 12.078125 12.449219 12.179688 12.445312 12.355469 C 12.445312 12.410156 12.457031 12.46875 12.484375 12.535156 C 12.621094 12.859375 12.878906 12.988281 13.171875 13.078125 C 13.277344 13.105469 13.378906 13.132812 13.472656 13.164062 C 13.597656 13.195312 13.722656 13.230469 13.84375 13.277344 C 14.203125 13.414062 14.578125 13.511719 14.964844 13.566406 C 15.730469 13.667969 16.507812 13.59375 17.214844 13.351562 C 17.4375 13.277344 17.964844 13.0625 18.070312 12.707031 C 18.171875 12.371094 17.496094 11.859375 17.246094 11.664062 Z M 12.808594 13.011719 C 12.644531 12.914062 12.503906 12.777344 12.414062 12.5625 C 12.382812 12.488281 12.367188 12.417969 12.367188 12.355469 C 12.367188 12.300781 12.378906 12.253906 12.398438 12.214844 C 12.242188 12.328125 12.089844 12.445312 11.941406 12.566406 C 11.886719 12.613281 11.835938 12.660156 11.804688 12.714844 C 11.777344 12.765625 11.761719 12.835938 11.792969 12.894531 C 11.808594 12.921875 11.835938 12.945312 11.871094 12.964844 C 11.988281 13.027344 12.125 13.011719 12.257812 13 C 12.292969 12.996094 12.328125 12.992188 12.363281 12.988281 C 12.5 12.980469 12.652344 12.992188 12.808594 13.011719 Z M 15.136719 12.117188 C 15.160156 12.324219 15.351562 12.476562 15.5625 12.453125 C 15.773438 12.429688 15.925781 12.242188 15.902344 12.03125 C 15.878906 11.820312 15.6875 11.671875 15.476562 11.695312 C 15.265625 11.71875 15.113281 11.90625 15.136719 12.117188 Z M 15.617188 10.863281 C 16.398438 10.9375 17.148438 11.296875 17.679688 11.851562 C 17.738281 11.914062 17.796875 11.980469 17.851562 12.042969 C 17.964844 12.167969 18.082031 12.300781 18.214844 12.410156 C 18.4375 12.589844 18.6875 12.671875 18.902344 12.628906 C 18.925781 12.625 18.945312 12.640625 18.949219 12.660156 C 18.953125 12.683594 18.9375 12.703125 18.917969 12.707031 C 18.875 12.714844 18.835938 12.71875 18.792969 12.71875 C 18.585938 12.71875 18.363281 12.632812 18.164062 12.46875 C 18.140625 12.453125 18.121094 12.429688 18.097656 12.410156 C 18.152344 12.523438 18.175781 12.628906 18.144531 12.730469 C 18.03125 13.117188 17.476562 13.34375 17.242188 13.425781 C 16.734375 13.601562 16.191406 13.6875 15.640625 13.6875 C 15.414062 13.6875 15.183594 13.671875 14.957031 13.640625 C 14.5625 13.589844 14.179688 13.492188 13.816406 13.351562 C 13.683594 13.300781 13.539062 13.261719 13.402344 13.226562 C 13.238281 13.183594 13.070312 13.136719 12.917969 13.066406 C 12.722656 13.035156 12.53125 13.019531 12.367188 13.027344 C 12.332031 13.03125 12.296875 13.035156 12.261719 13.039062 C 12.125 13.050781 11.980469 13.066406 11.855469 13 C 11.8125 12.976562 11.78125 12.949219 11.761719 12.914062 C 11.726562 12.855469 11.730469 12.769531 11.769531 12.695312 C 11.804688 12.632812 11.859375 12.585938 11.917969 12.539062 C 12.035156 12.441406 12.152344 12.347656 12.277344 12.253906 C 12.023438 12.386719 11.757812 12.492188 11.476562 12.550781 C 11.453125 12.554688 11.433594 12.542969 11.429688 12.519531 C 11.425781 12.5 11.4375 12.480469 11.460938 12.476562 C 12.007812 12.359375 12.496094 12.058594 12.96875 11.753906 C 13.175781 11.601562 13.394531 11.449219 13.625 11.324219 C 13.792969 11.230469 13.972656 11.152344 14.15625 11.089844 C 14.585938 10.917969 15.074219 10.8125 15.617188 10.863281 Z M 18.246094 11.574219 C 18.238281 11.582031 18.234375 11.59375 18.242188 11.601562 C 18.4375 11.90625 18.601562 12.230469 18.722656 12.570312 C 18.726562 12.578125 18.734375 12.582031 18.742188 12.582031 C 18.746094 12.582031 18.746094 12.582031 18.75 12.582031 C 18.757812 12.578125 18.765625 12.566406 18.761719 12.554688 C 18.636719 12.214844 18.472656 11.886719 18.273438 11.582031 C 18.269531 11.574219 18.257812 11.570312 18.246094 11.574219 Z M 12.445312 11.777344 C 13.015625 11.21875 13.761719 10.847656 14.550781 10.726562 C 14.5625 10.726562 14.570312 10.71875 14.566406 10.707031 C 14.566406 10.695312 14.554688 10.6875 14.546875 10.691406 C 13.746094 10.808594 12.992188 11.1875 12.417969 11.75 C 12.410156 11.757812 12.410156 11.769531 12.417969 11.777344 C 12.421875 11.78125 12.425781 11.78125 12.429688 11.78125 C 12.4375 11.78125 12.441406 11.78125 12.445312 11.777344 Z M 18.386719 12.949219 C 18.378906 12.941406 18.367188 12.941406 18.359375 12.949219 C 17.894531 13.382812 17.269531 13.675781 16.558594 13.804688 C 15.949219 13.910156 15.289062 13.898438 14.539062 13.761719 C 14.527344 13.761719 14.519531 13.769531 14.515625 13.777344 C 14.515625 13.789062 14.523438 13.800781 14.53125 13.800781 C 14.953125 13.875 15.34375 13.914062 15.710938 13.914062 C 16.007812 13.914062 16.292969 13.890625 16.566406 13.84375 C 17.285156 13.714844 17.914062 13.414062 18.386719 12.976562 C 18.394531 12.96875 18.394531 12.957031 18.386719 12.949219 Z M 16.835938 14.140625 C 16.285156 14.351562 15.617188 14.390625 14.90625 14.261719 C 14.242188 14.136719 13.597656 13.878906 13.042969 13.644531 C 13.03125 13.640625 13.019531 13.648438 13.015625 13.65625 C 13.011719 13.667969 13.015625 13.679688 13.027344 13.683594 C 13.582031 13.914062 14.230469 14.175781 14.898438 14.296875 C 15.171875 14.347656 15.441406 14.375 15.699219 14.375 C 16.117188 14.375 16.503906 14.308594 16.851562 14.179688 C 16.859375 14.175781 16.867188 14.164062 16.863281 14.152344 C 16.859375 14.144531 16.847656 14.136719 16.835938 14.140625 Z M 12.027344 11.5625 C 12.019531 11.554688 12.007812 11.558594 12 11.566406 C 11.816406 11.804688 11.613281 12.039062 11.40625 12.261719 C 11.398438 12.269531 11.398438 12.28125 11.40625 12.289062 C 11.410156 12.292969 11.414062 12.292969 11.417969 12.292969 C 11.425781 12.292969 11.429688 12.292969 11.433594 12.289062 C 11.644531 12.066406 11.84375 11.832031 12.03125 11.589844 C 12.039062 11.582031 12.039062 11.570312 12.027344 11.5625 Z M 18.828125 12.261719 C 18.832031 12.261719 18.835938 12.261719 18.835938 12.261719 C 18.847656 12.253906 18.851562 12.246094 18.847656 12.234375 C 18.652344 11.796875 18.367188 11.390625 18.023438 11.054688 C 18.015625 11.050781 18.003906 11.050781 17.996094 11.058594 C 17.988281 11.066406 17.988281 11.078125 17.996094 11.085938 C 18.335938 11.414062 18.617188 11.816406 18.8125 12.25 C 18.816406 12.257812 18.820312 12.261719 18.828125 12.261719 Z M 12.957031 10.6875 C 13.296875 10.375 13.664062 10.140625 14.046875 9.988281 C 14.644531 9.75 15.277344 9.722656 15.824219 9.910156 C 15.832031 9.914062 15.839844 9.925781 15.835938 9.933594 C 15.832031 9.945312 15.820312 9.949219 15.808594 9.949219 C 15.273438 9.761719 14.652344 9.789062 14.0625 10.023438 C 13.761719 10.144531 13.472656 10.316406 13.195312 10.535156 C 13.671875 10.261719 14.234375 10.09375 14.835938 10.058594 C 15.621094 10.015625 16.480469 10.1875 17.398438 10.566406 C 17.421875 10.578125 17.429688 10.597656 17.421875 10.617188 C 17.414062 10.640625 17.390625 10.648438 17.371094 10.640625 C 16.460938 10.261719 15.613281 10.09375 14.84375 10.136719 C 14.007812 10.183594 13.246094 10.492188 12.710938 10.988281 C 12.683594 11.015625 12.660156 11.046875 12.632812 11.074219 C 12.628906 11.078125 12.621094 11.082031 12.617188 11.082031 C 12.617188 11.082031 12.617188 11.082031 12.613281 11.082031 C 12.589844 11.105469 12.5625 11.132812 12.539062 11.160156 C 12.53125 11.167969 12.523438 11.171875 12.511719 11.171875 C 12.5 11.171875 12.492188 11.167969 12.484375 11.164062 C 12.46875 11.148438 12.46875 11.125 12.480469 11.109375 C 12.621094 10.953125 12.78125 10.8125 12.957031 10.6875 " fill-opacity="1" fill-rule="nonzero"/></g><g fill="#000000" fill-opacity="1"><g transform="translate(8.750214, 20.525349)"><g><path d="M 0.464844 -0.425781 C 0.433594 -0.40625 0.414062 -0.382812 0.398438 -0.355469 C 0.378906 -0.324219 0.367188 -0.292969 0.351562 -0.261719 C 0.324219 -0.214844 0.296875 -0.171875 0.273438 -0.128906 C 0.257812 -0.105469 0.261719 -0.0742188 0.25 -0.0546875 C 0.242188 -0.0429688 0.230469 -0.0273438 0.226562 -0.015625 C 0.203125 0.0273438 0.195312 0.0703125 0.1875 0.121094 C 0.179688 0.140625 0.167969 0.132812 0.160156 0.148438 C 0.160156 0.152344 0.160156 0.152344 0.164062 0.15625 C 0.179688 0.160156 0.195312 0.160156 0.203125 0.164062 C 0.21875 0.171875 0.21875 0.191406 0.230469 0.199219 C 0.355469 0.273438 0.425781 0.183594 0.445312 0.148438 C 0.460938 0.125 0.460938 0.0898438 0.480469 0.0585938 C 0.492188 0.03125 0.507812 0.0117188 0.523438 -0.0117188 C 0.554688 -0.0703125 0.574219 -0.132812 0.605469 -0.1875 C 0.609375 -0.195312 0.613281 -0.199219 0.617188 -0.207031 C 0.621094 -0.210938 0.613281 -0.222656 0.609375 -0.226562 C 0.601562 -0.230469 0.59375 -0.230469 0.582031 -0.234375 C 0.578125 -0.238281 0.582031 -0.25 0.582031 -0.253906 C 0.605469 -0.292969 0.664062 -0.339844 0.699219 -0.398438 C 0.726562 -0.429688 0.828125 -0.378906 0.894531 -0.339844 C 0.945312 -0.3125 0.949219 -0.304688 0.976562 -0.289062 C 1.003906 -0.277344 1.050781 -0.257812 1.070312 -0.292969 C 1.117188 -0.375 1.042969 -0.433594 0.984375 -0.464844 C 0.921875 -0.5 0.90625 -0.496094 0.808594 -0.546875 C 0.773438 -0.570312 0.777344 -0.578125 0.839844 -0.6875 C 0.855469 -0.71875 0.890625 -0.742188 0.898438 -0.761719 C 0.90625 -0.773438 0.910156 -0.785156 0.917969 -0.800781 C 0.925781 -0.816406 0.941406 -0.828125 0.949219 -0.847656 C 0.953125 -0.851562 0.957031 -0.863281 0.960938 -0.871094 C 0.972656 -0.890625 0.992188 -0.90625 1.003906 -0.925781 C 1.015625 -0.949219 1.019531 -0.980469 1.03125 -1.003906 C 1.058594 -1.050781 1.363281 -0.898438 1.367188 -0.902344 C 1.394531 -0.882812 1.421875 -0.855469 1.449219 -0.839844 C 1.503906 -0.808594 1.527344 -0.835938 1.542969 -0.867188 C 1.5625 -0.902344 1.496094 -0.949219 1.464844 -0.964844 C 1.457031 -0.96875 1.453125 -0.972656 1.449219 -0.972656 C 1.449219 -0.972656 1.449219 -0.972656 1.453125 -0.972656 C 1.429688 -0.992188 1.40625 -1.007812 1.382812 -1.019531 C 1.289062 -1.074219 1.167969 -1.097656 1.070312 -1.152344 C 1.050781 -1.164062 1.039062 -1.179688 1.015625 -1.191406 C 0.945312 -1.230469 0.882812 -1.25 0.859375 -1.210938 C 0.84375 -1.183594 0.839844 -1.148438 0.824219 -1.121094 C 0.804688 -1.085938 0.78125 -1.050781 0.761719 -1.011719 C 0.730469 -0.957031 0.710938 -0.898438 0.691406 -0.863281 C 0.675781 -0.832031 0.65625 -0.808594 0.640625 -0.78125 C 0.621094 -0.742188 0.617188 -0.699219 0.597656 -0.667969 C 0.589844 -0.65625 0.574219 -0.648438 0.566406 -0.632812 C 0.550781 -0.601562 0.539062 -0.570312 0.523438 -0.539062 C 0.515625 -0.53125 0.46875 -0.484375 0.46875 -0.484375 C 0.460938 -0.472656 0.460938 -0.453125 0.464844 -0.425781 Z M 0.640625 -0.359375 C 0.632812 -0.351562 0.621094 -0.332031 0.605469 -0.332031 C 0.605469 -0.351562 0.609375 -0.363281 0.617188 -0.378906 C 0.625 -0.390625 0.644531 -0.417969 0.65625 -0.414062 C 0.660156 -0.390625 0.648438 -0.378906 0.640625 -0.359375 Z M 0.582031 -0.398438 C 0.578125 -0.390625 0.570312 -0.382812 0.566406 -0.386719 C 0.554688 -0.390625 0.558594 -0.40625 0.5625 -0.414062 C 0.570312 -0.425781 0.578125 -0.433594 0.589844 -0.429688 C 0.59375 -0.425781 0.589844 -0.40625 0.582031 -0.398438 Z M 0.488281 -0.242188 C 0.488281 -0.25 0.492188 -0.257812 0.492188 -0.265625 C 0.5 -0.273438 0.507812 -0.28125 0.515625 -0.289062 C 0.515625 -0.277344 0.511719 -0.269531 0.507812 -0.261719 C 0.503906 -0.253906 0.5 -0.246094 0.488281 -0.242188 Z M 0.699219 -0.621094 C 0.699219 -0.617188 0.703125 -0.613281 0.703125 -0.613281 C 0.699219 -0.605469 0.695312 -0.605469 0.691406 -0.609375 C 0.691406 -0.613281 0.6875 -0.613281 0.691406 -0.617188 C 0.691406 -0.617188 0.695312 -0.621094 0.699219 -0.621094 Z M 0.699219 -0.621094 "/></g></g></g><g fill="#000000" fill-opacity="1"><g transform="translate(9.925377, 21.168883)"><g><path d="M 0.628906 -0.582031 C 0.636719 -0.601562 0.644531 -0.621094 0.648438 -0.636719 C 0.652344 -0.636719 0.652344 -0.636719 0.65625 -0.636719 C 0.65625 -0.636719 0.660156 -0.632812 0.65625 -0.628906 C 0.648438 -0.613281 0.640625 -0.597656 0.628906 -0.582031 C 0.660156 -0.597656 0.679688 -0.621094 0.691406 -0.648438 C 0.703125 -0.675781 0.707031 -0.699219 0.714844 -0.71875 C 0.730469 -0.753906 0.757812 -0.785156 0.78125 -0.835938 C 0.820312 -0.9375 0.84375 -1.035156 0.886719 -1.144531 C 0.910156 -1.199219 0.867188 -1.28125 0.8125 -1.304688 C 0.71875 -1.34375 0.734375 -1.257812 0.679688 -1.175781 C 0.621094 -1.082031 0.574219 -0.984375 0.53125 -0.882812 C 0.519531 -0.855469 0.519531 -0.820312 0.511719 -0.792969 C 0.503906 -0.785156 0.496094 -0.773438 0.492188 -0.761719 C 0.484375 -0.742188 0.480469 -0.714844 0.46875 -0.691406 C 0.4375 -0.617188 0.390625 -0.535156 0.351562 -0.449219 C 0.339844 -0.425781 0.347656 -0.390625 0.34375 -0.375 C 0.328125 -0.34375 0.296875 -0.308594 0.28125 -0.265625 C 0.269531 -0.242188 0.269531 -0.214844 0.261719 -0.195312 C 0.25 -0.164062 0.226562 -0.140625 0.214844 -0.113281 C 0.175781 -0.0234375 0.136719 0.113281 0.207031 0.160156 C 0.230469 0.179688 0.257812 0.1875 0.285156 0.199219 C 0.300781 0.195312 0.320312 0.207031 0.332031 0.210938 C 0.378906 0.230469 0.488281 0.0585938 0.53125 -0.00390625 C 0.535156 -0.0117188 0.546875 -0.0195312 0.550781 -0.03125 C 0.550781 -0.0390625 0.550781 -0.0429688 0.554688 -0.046875 C 0.570312 -0.0898438 0.621094 -0.152344 0.628906 -0.148438 C 0.65625 -0.136719 0.6875 0.0351562 0.699219 0.0898438 C 0.714844 0.171875 0.734375 0.257812 0.742188 0.328125 C 0.742188 0.367188 0.769531 0.402344 0.761719 0.441406 C 0.765625 0.480469 0.828125 0.609375 0.847656 0.625 C 0.859375 0.632812 0.871094 0.636719 0.882812 0.644531 C 0.910156 0.65625 0.9375 0.644531 0.945312 0.621094 C 0.949219 0.609375 0.949219 0.59375 0.953125 0.582031 C 0.957031 0.574219 0.980469 0.566406 0.988281 0.546875 C 0.992188 0.542969 0.964844 0.453125 0.960938 0.414062 C 0.957031 0.394531 0.972656 0.371094 0.964844 0.359375 C 0.9375 0.304688 0.953125 0.234375 0.929688 0.171875 C 0.917969 0.148438 0.933594 0.117188 0.921875 0.09375 C 0.875 0.0117188 0.894531 -0.109375 0.875 -0.183594 C 0.867188 -0.203125 0.851562 -0.25 0.855469 -0.261719 C 0.878906 -0.316406 0.988281 -0.277344 1.027344 -0.332031 C 1.050781 -0.363281 1.128906 -0.382812 1.160156 -0.425781 C 1.191406 -0.472656 1.273438 -0.527344 1.28125 -0.546875 C 1.296875 -0.570312 1.308594 -0.535156 1.332031 -0.585938 C 1.347656 -0.621094 1.386719 -0.632812 1.398438 -0.664062 C 1.417969 -0.710938 1.449219 -0.753906 1.464844 -0.792969 C 1.484375 -0.839844 1.496094 -0.898438 1.515625 -0.949219 C 1.496094 -1.011719 1.460938 -1.078125 1.414062 -1.097656 C 1.3125 -1.140625 1.265625 -1.085938 1.207031 -1.070312 C 1.152344 -1.054688 1.128906 -1.007812 1.078125 -0.992188 C 1.035156 -0.980469 1.023438 -0.921875 0.992188 -0.910156 C 0.953125 -0.890625 0.945312 -0.839844 0.914062 -0.824219 C 0.871094 -0.808594 0.824219 -0.683594 0.785156 -0.65625 C 0.730469 -0.621094 0.726562 -0.550781 0.644531 -0.527344 C 0.644531 -0.554688 0.644531 -0.558594 0.628906 -0.582031 Z M 1.3125 -0.875 C 1.277344 -0.8125 1.253906 -0.753906 1.210938 -0.707031 C 1.203125 -0.703125 1.195312 -0.691406 1.191406 -0.683594 C 1.160156 -0.628906 1.097656 -0.609375 1.074219 -0.570312 C 1.0625 -0.539062 1.011719 -0.519531 0.996094 -0.480469 C 0.992188 -0.476562 0.992188 -0.46875 0.992188 -0.464844 C 0.976562 -0.429688 0.941406 -0.472656 0.917969 -0.445312 C 0.890625 -0.445312 0.839844 -0.433594 0.816406 -0.441406 C 0.800781 -0.449219 0.808594 -0.484375 0.816406 -0.5 C 0.824219 -0.523438 0.839844 -0.519531 0.863281 -0.542969 C 0.902344 -0.585938 0.941406 -0.628906 0.96875 -0.675781 C 0.972656 -0.683594 0.976562 -0.691406 0.984375 -0.695312 C 1.0625 -0.746094 1.089844 -0.851562 1.152344 -0.890625 C 1.191406 -0.914062 1.28125 -0.988281 1.3125 -0.972656 C 1.351562 -0.957031 1.320312 -0.894531 1.3125 -0.875 Z M 1.03125 -0.421875 C 1.027344 -0.421875 1.023438 -0.425781 1.023438 -0.425781 C 1.03125 -0.433594 1.027344 -0.441406 1.046875 -0.433594 C 1.042969 -0.425781 1.035156 -0.425781 1.03125 -0.421875 Z M 1.03125 -0.421875 "/></g></g></g><g fill="#000000" fill-opacity="1"><g transform="translate(11.411696, 21.750904)"><g><path d="M 0.335938 -0.511719 C 0.324219 -0.511719 0.316406 -0.511719 0.308594 -0.511719 C 0.300781 -0.515625 0.289062 -0.519531 0.277344 -0.523438 C 0.269531 -0.527344 0.257812 -0.519531 0.257812 -0.507812 C 0.25 -0.480469 0.261719 -0.445312 0.253906 -0.417969 C 0.230469 -0.328125 0.140625 -0.210938 0.105469 -0.136719 C 0.0742188 -0.0742188 0.0273438 -0.0078125 -0.0078125 0.0429688 C -0.0117188 0.046875 -0.0117188 0.046875 -0.015625 0.0546875 C -0.0195312 0.0742188 0.00390625 0.109375 0.03125 0.117188 C 0.09375 0.132812 0.175781 0.015625 0.191406 -0.00390625 C 0.242188 -0.0585938 0.34375 -0.320312 0.425781 -0.296875 C 0.46875 -0.289062 0.523438 -0.308594 0.53125 -0.304688 C 0.539062 -0.300781 0.546875 -0.296875 0.554688 -0.296875 C 0.558594 -0.292969 0.566406 -0.296875 0.574219 -0.296875 C 0.601562 -0.308594 0.632812 -0.289062 0.660156 -0.304688 C 0.691406 -0.308594 0.742188 -0.3125 0.761719 -0.304688 C 0.820312 -0.292969 0.78125 -0.0429688 0.765625 0.00390625 C 0.765625 0.0117188 0.761719 0.0195312 0.757812 0.0273438 C 0.746094 0.0820312 0.753906 0.125 0.753906 0.171875 C 0.746094 0.226562 0.742188 0.28125 0.789062 0.328125 C 0.800781 0.339844 0.800781 0.371094 0.820312 0.375 C 0.851562 0.382812 0.910156 0.34375 0.945312 0.328125 C 0.957031 0.324219 0.96875 0.320312 0.984375 0.316406 C 0.996094 0.269531 1.003906 0.222656 1 0.175781 C 0.996094 0.113281 1.023438 0.0078125 1.007812 -0.0234375 C 0.996094 -0.0546875 1.015625 -0.175781 1.015625 -0.246094 C 1.027344 -0.261719 1.042969 -0.285156 1.058594 -0.304688 C 1.027344 -0.398438 1.015625 -0.472656 1.039062 -0.554688 C 1.042969 -0.578125 1.050781 -0.597656 1.058594 -0.621094 C 1.070312 -0.667969 1.066406 -0.710938 1.070312 -0.757812 C 1.078125 -0.824219 1.105469 -0.917969 1.085938 -0.976562 C 1.097656 -0.992188 1.101562 -1.003906 1.109375 -1.042969 C 1.136719 -1.140625 1.183594 -1.351562 1.0625 -1.382812 C 1.050781 -1.386719 1.039062 -1.386719 1.027344 -1.390625 C 0.878906 -1.429688 0.777344 -1.171875 0.664062 -1.070312 C 0.648438 -1.054688 0.636719 -1.019531 0.628906 -1 C 0.621094 -0.972656 0.589844 -0.96875 0.582031 -0.945312 C 0.574219 -0.917969 0.554688 -0.902344 0.539062 -0.886719 C 0.488281 -0.828125 0.457031 -0.71875 0.421875 -0.691406 C 0.367188 -0.644531 0.367188 -0.597656 0.335938 -0.511719 Z M 0.675781 -0.800781 C 0.71875 -0.8125 0.75 -0.84375 0.761719 -0.890625 C 0.769531 -0.921875 0.855469 -1.027344 0.867188 -1.023438 C 0.878906 -1.019531 0.875 -0.90625 0.875 -0.90625 C 0.875 -0.90625 0.875 -0.910156 0.875 -0.910156 C 0.871094 -0.902344 0.871094 -0.898438 0.871094 -0.894531 C 0.835938 -0.773438 0.84375 -0.617188 0.816406 -0.515625 C 0.808594 -0.488281 0.800781 -0.46875 0.769531 -0.460938 C 0.691406 -0.46875 0.601562 -0.46875 0.527344 -0.488281 C 0.507812 -0.492188 0.519531 -0.523438 0.523438 -0.542969 C 0.550781 -0.640625 0.644531 -0.71875 0.65625 -0.746094 C 0.664062 -0.761719 0.671875 -0.78125 0.675781 -0.800781 Z M 0.675781 -0.800781 "/></g></g></g><g fill="#000000" fill-opacity="1"><g transform="translate(12.940381, 22.130467)"><g><path d="M 0.839844 -0.921875 C 0.804688 -0.9375 0.832031 -0.992188 0.796875 -1.011719 C 0.796875 -1.011719 0.792969 -1.015625 0.792969 -1.015625 C 0.792969 -1.023438 0.800781 -1.035156 0.800781 -1.039062 C 0.804688 -1.054688 0.792969 -1.0625 0.785156 -1.066406 C 0.777344 -1.0625 0.773438 -1.0625 0.769531 -1.0625 C 0.769531 -1.074219 0.71875 -1.210938 0.707031 -1.277344 C 0.695312 -1.347656 0.660156 -1.410156 0.621094 -1.46875 C 0.59375 -1.5 0.601562 -1.550781 0.554688 -1.558594 C 0.519531 -1.5625 0.421875 -1.539062 0.421875 -1.511719 C 0.382812 -1.402344 0.363281 -1.289062 0.332031 -1.179688 C 0.332031 -1.171875 0.332031 -1.167969 0.328125 -1.160156 C 0.328125 -1.140625 0.332031 -1.125 0.332031 -1.105469 C 0.328125 -1.074219 0.3125 -1.042969 0.308594 -1.011719 C 0.304688 -0.980469 0.3125 -0.945312 0.3125 -0.914062 C 0.308594 -0.902344 0.296875 -0.890625 0.296875 -0.875 C 0.292969 -0.863281 0.296875 -0.859375 0.292969 -0.847656 C 0.292969 -0.824219 0.265625 -0.816406 0.261719 -0.796875 C 0.257812 -0.78125 0.273438 -0.761719 0.273438 -0.75 C 0.273438 -0.714844 0.273438 -0.683594 0.269531 -0.648438 C 0.265625 -0.621094 0.230469 -0.617188 0.226562 -0.589844 C 0.222656 -0.570312 0.234375 -0.550781 0.238281 -0.53125 C 0.242188 -0.488281 0.246094 -0.421875 0.242188 -0.378906 C 0.238281 -0.359375 0.222656 -0.339844 0.21875 -0.3125 C 0.214844 -0.28125 0.234375 -0.253906 0.230469 -0.226562 C 0.226562 -0.195312 0.203125 -0.15625 0.199219 -0.117188 C 0.195312 -0.078125 0.207031 0.0664062 0.28125 0.0742188 C 0.339844 0.0820312 0.394531 -0.0664062 0.394531 -0.0664062 C 0.40625 -0.175781 0.375 -0.203125 0.378906 -0.226562 C 0.378906 -0.25 0.414062 -0.25 0.417969 -0.28125 C 0.421875 -0.289062 0.417969 -0.304688 0.421875 -0.316406 C 0.421875 -0.335938 0.449219 -0.355469 0.449219 -0.371094 C 0.453125 -0.40625 0.433594 -0.453125 0.4375 -0.484375 C 0.441406 -0.523438 0.46875 -0.554688 0.472656 -0.605469 C 0.480469 -0.652344 0.457031 -0.683594 0.457031 -0.6875 C 0.460938 -0.707031 0.488281 -0.734375 0.496094 -0.78125 C 0.5 -0.828125 0.480469 -0.878906 0.484375 -0.910156 C 0.492188 -0.964844 0.535156 -1.066406 0.558594 -1.0625 C 0.582031 -1.0625 0.597656 -0.984375 0.609375 -0.96875 C 0.613281 -0.972656 0.621094 -0.984375 0.628906 -0.984375 C 0.675781 -0.976562 0.644531 -0.738281 0.691406 -0.734375 C 0.699219 -0.730469 0.707031 -0.742188 0.714844 -0.742188 C 0.730469 -0.738281 0.734375 -0.722656 0.734375 -0.71875 C 0.734375 -0.710938 0.730469 -0.707031 0.730469 -0.703125 C 0.71875 -0.605469 0.761719 -0.554688 0.773438 -0.53125 C 0.796875 -0.484375 0.839844 -0.371094 0.835938 -0.371094 C 0.855469 -0.363281 0.886719 -0.300781 0.882812 -0.292969 C 0.878906 -0.253906 0.90625 -0.222656 0.902344 -0.207031 C 0.902344 -0.15625 0.933594 -0.0820312 0.945312 -0.0234375 C 0.953125 0.0234375 0.964844 0.0742188 0.988281 0.113281 C 1.042969 0.105469 1.085938 0.09375 1.09375 0.046875 C 1.09375 0.03125 1.09375 0.0117188 1.097656 0 C 1.101562 -0.046875 1.121094 -0.0859375 1.128906 -0.140625 C 1.136719 -0.199219 1.113281 -0.25 1.121094 -0.316406 C 1.128906 -0.375 1.136719 -0.449219 1.109375 -0.484375 C 1.105469 -0.488281 1.101562 -0.496094 1.101562 -0.5 C 1.109375 -0.523438 1.105469 -0.550781 1.128906 -0.566406 C 1.128906 -0.570312 1.128906 -0.570312 1.128906 -0.574219 C 1.132812 -0.585938 1.109375 -0.59375 1.09375 -0.601562 C 1.09375 -0.617188 1.125 -0.625 1.128906 -0.652344 C 1.128906 -0.65625 1.125 -0.660156 1.128906 -0.664062 C 1.128906 -0.667969 1.128906 -0.671875 1.140625 -0.675781 C 1.136719 -0.660156 1.136719 -0.632812 1.148438 -0.632812 C 1.164062 -0.628906 1.171875 -0.660156 1.171875 -0.65625 C 1.175781 -0.683594 1.164062 -0.707031 1.167969 -0.734375 C 1.167969 -0.753906 1.175781 -0.773438 1.183594 -0.792969 C 1.183594 -0.792969 1.183594 -0.800781 1.179688 -0.800781 C 1.171875 -0.800781 1.160156 -0.796875 1.144531 -0.789062 C 1.15625 -0.820312 1.199219 -0.859375 1.199219 -0.890625 C 1.207031 -0.941406 1.265625 -0.957031 1.277344 -1.035156 C 1.292969 -1.167969 1.355469 -1.289062 1.371094 -1.421875 C 1.375 -1.46875 1.355469 -1.503906 1.3125 -1.507812 C 1.28125 -1.511719 1.226562 -1.519531 1.222656 -1.480469 C 1.195312 -1.269531 1.125 -1.085938 1.089844 -0.890625 C 1.101562 -0.867188 1.109375 -0.867188 1.109375 -0.859375 C 1.109375 -0.851562 1.074219 -0.847656 1.074219 -0.828125 C 1.066406 -0.789062 1.050781 -0.75 1.046875 -0.710938 C 1.042969 -0.691406 1.0625 -0.683594 1.0625 -0.675781 C 1.058594 -0.660156 1.046875 -0.605469 1.035156 -0.585938 C 1.035156 -0.566406 1.046875 -0.5625 1.042969 -0.554688 C 1.042969 -0.546875 1.027344 -0.5 1.011719 -0.503906 C 1 -0.503906 0.964844 -0.566406 0.964844 -0.582031 C 0.96875 -0.621094 0.914062 -0.652344 0.914062 -0.707031 C 0.914062 -0.734375 0.910156 -0.800781 0.882812 -0.800781 C 0.882812 -0.800781 0.875 -0.796875 0.871094 -0.800781 C 0.855469 -0.800781 0.882812 -0.871094 0.847656 -0.890625 C 0.835938 -0.894531 0.835938 -0.898438 0.835938 -0.90625 C 0.835938 -0.910156 0.839844 -0.914062 0.839844 -0.921875 Z M 0.390625 -0.691406 C 0.410156 -0.714844 0.429688 -0.730469 0.433594 -0.734375 C 0.441406 -0.707031 0.4375 -0.664062 0.4375 -0.636719 C 0.433594 -0.625 0.421875 -0.609375 0.410156 -0.613281 C 0.390625 -0.617188 0.394531 -0.671875 0.390625 -0.691406 Z M 0.375 -0.308594 C 0.367188 -0.304688 0.367188 -0.285156 0.355469 -0.277344 C 0.347656 -0.28125 0.34375 -0.285156 0.34375 -0.296875 C 0.347656 -0.316406 0.355469 -0.34375 0.371094 -0.347656 C 0.375 -0.332031 0.375 -0.335938 0.375 -0.308594 Z M 0.414062 -0.882812 C 0.417969 -0.863281 0.417969 -0.851562 0.417969 -0.839844 C 0.417969 -0.832031 0.417969 -0.820312 0.410156 -0.816406 C 0.40625 -0.816406 0.40625 -0.828125 0.40625 -0.847656 C 0.410156 -0.855469 0.410156 -0.871094 0.414062 -0.882812 Z M 0.375 -0.964844 C 0.375 -0.976562 0.371094 -0.988281 0.375 -0.996094 C 0.375 -1.003906 0.382812 -1.011719 0.386719 -1.007812 C 0.398438 -1.007812 0.402344 -1 0.402344 -0.988281 C 0.398438 -0.976562 0.390625 -0.96875 0.375 -0.964844 Z M 0.375 -0.914062 C 0.371094 -0.917969 0.371094 -0.921875 0.371094 -0.925781 C 0.371094 -0.933594 0.378906 -0.9375 0.382812 -0.933594 C 0.382812 -0.933594 0.390625 -0.929688 0.390625 -0.925781 C 0.390625 -0.917969 0.378906 -0.910156 0.375 -0.914062 Z M 0.371094 -0.796875 C 0.371094 -0.792969 0.359375 -0.777344 0.355469 -0.777344 C 0.347656 -0.777344 0.347656 -0.796875 0.351562 -0.800781 C 0.355469 -0.804688 0.359375 -0.808594 0.363281 -0.808594 C 0.367188 -0.808594 0.367188 -0.804688 0.371094 -0.796875 Z M 0.410156 -0.382812 C 0.410156 -0.378906 0.40625 -0.375 0.402344 -0.375 C 0.402344 -0.375 0.398438 -0.382812 0.398438 -0.386719 C 0.398438 -0.390625 0.402344 -0.394531 0.40625 -0.394531 C 0.410156 -0.394531 0.410156 -0.386719 0.410156 -0.382812 Z M 0.296875 -0.53125 C 0.296875 -0.523438 0.292969 -0.523438 0.289062 -0.523438 C 0.289062 -0.527344 0.285156 -0.53125 0.285156 -0.53125 C 0.289062 -0.539062 0.289062 -0.542969 0.292969 -0.546875 C 0.296875 -0.539062 0.296875 -0.539062 0.296875 -0.53125 Z M 1.238281 -1.09375 C 1.238281 -1.089844 1.242188 -1.089844 1.242188 -1.085938 C 1.238281 -1.082031 1.238281 -1.082031 1.234375 -1.082031 C 1.234375 -1.082031 1.230469 -1.082031 1.230469 -1.089844 C 1.230469 -1.089844 1.234375 -1.09375 1.238281 -1.09375 Z M 0.34375 -0.691406 L 0.339844 -0.695312 L 0.34375 -0.699219 Z M 0.335938 -0.628906 C 0.332031 -0.632812 0.332031 -0.636719 0.332031 -0.636719 C 0.332031 -0.636719 0.339844 -0.640625 0.339844 -0.640625 C 0.339844 -0.640625 0.339844 -0.636719 0.339844 -0.632812 C 0.339844 -0.632812 0.339844 -0.628906 0.335938 -0.628906 Z M 1.148438 -0.730469 C 1.144531 -0.730469 1.144531 -0.726562 1.140625 -0.722656 C 1.140625 -0.726562 1.136719 -0.730469 1.136719 -0.734375 C 1.140625 -0.738281 1.140625 -0.738281 1.144531 -0.738281 C 1.144531 -0.738281 1.148438 -0.734375 1.148438 -0.730469 Z M 0.414062 -0.449219 C 0.414062 -0.445312 0.417969 -0.441406 0.417969 -0.441406 C 0.414062 -0.4375 0.414062 -0.4375 0.410156 -0.4375 C 0.410156 -0.4375 0.410156 -0.441406 0.410156 -0.445312 C 0.410156 -0.445312 0.414062 -0.449219 0.414062 -0.449219 Z M 1.230469 -1.027344 L 1.222656 -1.027344 L 1.230469 -1.035156 Z M 0.839844 -0.917969 C 0.839844 -0.917969 0.839844 -0.921875 0.839844 -0.921875 C 0.84375 -0.921875 0.847656 -0.917969 0.847656 -0.917969 C 0.851562 -0.917969 0.851562 -0.925781 0.851562 -0.929688 C 0.847656 -0.925781 0.84375 -0.921875 0.839844 -0.917969 Z M 0.839844 -0.917969 "/></g></g></g><g fill="#000000" fill-opacity="1"><g transform="translate(14.657449, 22.297474)"><g><path d="M 0.65625 -0.117188 C 0.652344 -0.117188 0.648438 -0.121094 0.644531 -0.121094 C 0.644531 -0.121094 0.644531 -0.128906 0.644531 -0.128906 C 0.65625 -0.128906 0.652344 -0.117188 0.652344 -0.113281 C 0.730469 -0.164062 0.785156 -0.261719 0.785156 -0.347656 C 0.785156 -0.363281 0.792969 -0.378906 0.804688 -0.394531 L 0.804688 -0.390625 C 0.792969 -0.402344 0.78125 -0.417969 0.773438 -0.417969 C 0.753906 -0.417969 0.703125 -0.304688 0.660156 -0.28125 C 0.652344 -0.273438 0.648438 -0.265625 0.648438 -0.257812 C 0.648438 -0.246094 0.652344 -0.238281 0.652344 -0.230469 C 0.652344 -0.230469 0.558594 -0.175781 0.523438 -0.148438 C 0.511719 -0.136719 0.492188 -0.132812 0.476562 -0.132812 C 0.390625 -0.132812 0.351562 -0.222656 0.34375 -0.28125 C 0.339844 -0.355469 0.316406 -0.433594 0.316406 -0.507812 C 0.316406 -0.523438 0.320312 -0.539062 0.320312 -0.554688 C 0.320312 -0.570312 0.316406 -0.585938 0.316406 -0.601562 C 0.316406 -0.683594 0.351562 -0.765625 0.347656 -0.875 C 0.347656 -0.976562 0.394531 -1.082031 0.398438 -1.082031 C 0.398438 -1.085938 0.390625 -1.09375 0.390625 -1.101562 C 0.390625 -1.105469 0.441406 -1.171875 0.457031 -1.195312 C 0.472656 -1.226562 0.511719 -1.269531 0.511719 -1.289062 C 0.511719 -1.289062 0.511719 -1.296875 0.507812 -1.300781 C 0.539062 -1.355469 0.605469 -1.488281 0.671875 -1.488281 C 0.683594 -1.488281 0.6875 -1.46875 0.6875 -1.457031 C 0.6875 -1.4375 0.683594 -1.421875 0.683594 -1.402344 C 0.683594 -1.347656 0.6875 -1.253906 0.726562 -1.253906 C 0.765625 -1.261719 0.785156 -1.375 0.789062 -1.40625 C 0.808594 -1.460938 0.832031 -1.519531 0.832031 -1.574219 C 0.832031 -1.644531 0.75 -1.617188 0.695312 -1.652344 C 0.652344 -1.675781 0.605469 -1.675781 0.558594 -1.679688 C 0.464844 -1.675781 0.425781 -1.496094 0.414062 -1.488281 C 0.328125 -1.429688 0.300781 -1.304688 0.300781 -1.3125 C 0.304688 -1.21875 0.222656 -1.210938 0.222656 -1.167969 C 0.222656 -1.164062 0.222656 -1.160156 0.226562 -1.15625 C 0.226562 -1.140625 0.203125 -1.128906 0.203125 -1.105469 C 0.203125 -1.078125 0.210938 -1.058594 0.210938 -1.039062 C 0.210938 -0.992188 0.183594 -0.960938 0.183594 -0.90625 C 0.183594 -0.886719 0.167969 -0.867188 0.167969 -0.84375 C 0.167969 -0.71875 0.125 -0.71875 0.125 -0.664062 C 0.125 -0.648438 0.128906 -0.632812 0.128906 -0.617188 C 0.128906 -0.601562 0.125 -0.585938 0.125 -0.570312 C 0.125 -0.546875 0.136719 -0.519531 0.136719 -0.5 C 0.136719 -0.488281 0.128906 -0.476562 0.128906 -0.464844 C 0.128906 -0.449219 0.140625 -0.4375 0.140625 -0.425781 C 0.140625 -0.417969 0.132812 -0.40625 0.132812 -0.398438 C 0.132812 -0.378906 0.160156 -0.367188 0.160156 -0.339844 C 0.160156 -0.320312 0.148438 -0.300781 0.148438 -0.28125 C 0.148438 -0.238281 0.179688 -0.195312 0.179688 -0.148438 C 0.179688 -0.105469 0.289062 -0.0351562 0.292969 -0.0195312 C 0.296875 0.0078125 0.292969 0.0234375 0.339844 0.0195312 C 0.347656 0.0195312 0.355469 0.0195312 0.363281 0.0195312 C 0.390625 0.0195312 0.410156 0.0273438 0.429688 0.0429688 C 0.453125 0.0390625 0.464844 0.0234375 0.492188 0.0234375 C 0.492188 0.0234375 0.492188 0.0234375 0.496094 0.0234375 C 0.5625 0.0234375 0.636719 -0.0664062 0.65625 -0.117188 Z M 0.320312 -0.839844 C 0.3125 -0.839844 0.3125 -0.839844 0.3125 -0.847656 C 0.316406 -0.847656 0.320312 -0.847656 0.320312 -0.839844 Z M 0.683594 -0.164062 C 0.679688 -0.164062 0.679688 -0.160156 0.675781 -0.160156 C 0.675781 -0.164062 0.671875 -0.167969 0.671875 -0.167969 C 0.675781 -0.167969 0.675781 -0.167969 0.679688 -0.167969 C 0.679688 -0.167969 0.683594 -0.167969 0.683594 -0.164062 Z M 1.113281 -0.835938 C 1.113281 -0.851562 1.101562 -0.863281 1.085938 -0.863281 C 1.007812 -0.847656 1.015625 -0.765625 0.976562 -0.71875 C 0.976562 -0.714844 0.972656 -0.714844 0.972656 -0.714844 C 0.972656 -0.699219 0.984375 -0.695312 0.996094 -0.695312 C 1.085938 -0.695312 1.03125 -0.789062 1.082031 -0.792969 C 1.101562 -0.796875 1.113281 -0.816406 1.113281 -0.835938 Z M 0.804688 -0.390625 C 0.804688 -0.402344 0.8125 -0.40625 0.824219 -0.425781 C 0.835938 -0.402344 0.832031 -0.367188 0.84375 -0.367188 C 0.851562 -0.367188 0.859375 -0.398438 0.859375 -0.40625 C 0.855469 -0.4375 0.847656 -0.511719 0.835938 -0.511719 C 0.816406 -0.511719 0.796875 -0.457031 0.796875 -0.429688 C 0.796875 -0.417969 0.796875 -0.402344 0.804688 -0.390625 Z M 0.886719 -0.46875 C 0.890625 -0.472656 0.894531 -0.476562 0.894531 -0.480469 C 0.894531 -0.496094 0.886719 -0.507812 0.886719 -0.523438 C 0.886719 -0.542969 0.910156 -0.519531 0.910156 -0.570312 C 0.910156 -0.582031 0.910156 -0.59375 0.902344 -0.601562 C 0.878906 -0.582031 0.863281 -0.554688 0.867188 -0.523438 C 0.867188 -0.503906 0.871094 -0.484375 0.886719 -0.46875 Z M 0.976562 -0.585938 C 0.976562 -0.640625 0.976562 -0.636719 0.96875 -0.636719 C 0.949219 -0.636719 0.941406 -0.59375 0.9375 -0.574219 C 0.9375 -0.566406 0.949219 -0.554688 0.953125 -0.554688 C 0.980469 -0.554688 0.976562 -0.585938 0.976562 -0.589844 C 0.976562 -0.589844 0.976562 -0.589844 0.976562 -0.585938 Z M 0.976562 -0.585938 "/></g></g></g><g fill="#000000" fill-opacity="1"><g transform="translate(15.981419, 22.271061)"><g><path d="M 1.25 -0.265625 C 1.25 -0.265625 1.253906 -0.265625 1.253906 -0.265625 C 1.253906 -0.265625 1.25 -0.265625 1.25 -0.265625 C 1.257812 -0.253906 1.265625 -0.25 1.277344 -0.253906 C 1.289062 -0.253906 1.304688 -0.257812 1.300781 -0.273438 C 1.296875 -0.292969 1.253906 -0.292969 1.25 -0.3125 C 1.25 -0.324219 1.308594 -0.34375 1.304688 -0.375 C 1.304688 -0.394531 1.25 -0.390625 1.246094 -0.402344 C 1.234375 -0.433594 1.183594 -0.445312 1.171875 -0.445312 C 1.136719 -0.441406 1.101562 -0.425781 1.0625 -0.417969 C 0.960938 -0.398438 0.855469 -0.386719 0.761719 -0.347656 C 0.707031 -0.324219 0.648438 -0.316406 0.59375 -0.300781 C 0.566406 -0.296875 0.550781 -0.316406 0.527344 -0.3125 C 0.519531 -0.3125 0.511719 -0.308594 0.503906 -0.308594 C 0.496094 -0.308594 0.476562 -0.304688 0.472656 -0.320312 C 0.472656 -0.324219 0.472656 -0.335938 0.472656 -0.339844 C 0.46875 -0.355469 0.464844 -0.367188 0.445312 -0.371094 L 0.445312 -0.367188 C 0.449219 -0.382812 0.449219 -0.40625 0.445312 -0.425781 C 0.445312 -0.433594 0.46875 -0.480469 0.46875 -0.503906 C 0.46875 -0.539062 0.480469 -0.570312 0.496094 -0.605469 C 0.484375 -0.621094 0.464844 -0.65625 0.460938 -0.671875 C 0.457031 -0.691406 0.476562 -0.710938 0.476562 -0.71875 C 0.476562 -0.726562 0.453125 -0.738281 0.453125 -0.75 C 0.453125 -0.742188 0.519531 -0.835938 0.515625 -0.832031 C 0.515625 -0.835938 0.519531 -0.84375 0.519531 -0.84375 C 0.515625 -0.851562 0.511719 -0.855469 0.511719 -0.863281 C 0.507812 -0.886719 0.515625 -0.953125 0.519531 -0.957031 C 0.53125 -0.984375 0.53125 -1.03125 0.523438 -1.082031 C 0.511719 -1.167969 0.496094 -1.230469 0.484375 -1.304688 C 0.484375 -1.316406 0.484375 -1.328125 0.496094 -1.332031 C 0.503906 -1.332031 0.511719 -1.332031 0.523438 -1.332031 C 0.585938 -1.339844 0.628906 -1.398438 0.644531 -1.398438 C 0.652344 -1.402344 0.664062 -1.375 0.683594 -1.371094 C 0.714844 -1.371094 0.738281 -1.371094 0.765625 -1.375 C 0.8125 -1.378906 0.804688 -1.414062 0.8125 -1.414062 C 0.832031 -1.414062 0.878906 -1.414062 0.902344 -1.417969 C 0.957031 -1.425781 0.980469 -1.484375 0.972656 -1.53125 C 0.949219 -1.570312 0.917969 -1.578125 0.867188 -1.570312 C 0.855469 -1.570312 0.851562 -1.566406 0.84375 -1.566406 C 0.792969 -1.558594 0.746094 -1.570312 0.6875 -1.5625 C 0.667969 -1.558594 0.648438 -1.550781 0.625 -1.550781 C 0.601562 -1.546875 0.574219 -1.5625 0.546875 -1.558594 C 0.523438 -1.554688 0.5 -1.542969 0.476562 -1.539062 C 0.429688 -1.53125 0.378906 -1.535156 0.328125 -1.53125 C 0.296875 -1.527344 0.265625 -1.511719 0.238281 -1.507812 C 0.222656 -1.507812 0.203125 -1.511719 0.1875 -1.511719 C 0.175781 -1.507812 0.160156 -1.5 0.144531 -1.496094 C 0.113281 -1.492188 0.0703125 -1.503906 0.03125 -1.5 C 0.0234375 -1.496094 0.0117188 -1.492188 0.00390625 -1.492188 C -0.0507812 -1.488281 -0.105469 -1.488281 -0.15625 -1.480469 C -0.179688 -1.476562 -0.179688 -1.453125 -0.179688 -1.441406 C -0.175781 -1.417969 -0.136719 -1.339844 -0.132812 -1.335938 C -0.0625 -1.257812 -0.03125 -1.273438 0.15625 -1.289062 C 0.222656 -1.292969 0.238281 -1.289062 0.25 -1.183594 C 0.253906 -1.15625 0.230469 -1.136719 0.234375 -1.113281 C 0.238281 -1.097656 0.246094 -1.085938 0.246094 -1.070312 C 0.25 -1.042969 0.246094 -1.011719 0.25 -0.984375 C 0.253906 -0.960938 0.265625 -0.9375 0.277344 -0.917969 C 0.261719 -0.890625 0.246094 -0.863281 0.25 -0.839844 C 0.25 -0.824219 0.265625 -0.8125 0.269531 -0.796875 C 0.269531 -0.78125 0.242188 -0.753906 0.246094 -0.726562 C 0.246094 -0.699219 0.261719 -0.675781 0.265625 -0.664062 C 0.265625 -0.640625 0.246094 -0.574219 0.25 -0.527344 C 0.25 -0.40625 0.257812 -0.28125 0.269531 -0.1875 C 0.191406 -0.121094 0.0898438 -0.125 0 -0.0742188 C -0.0390625 -0.046875 -0.113281 -0.0234375 -0.109375 0.00390625 C -0.105469 0.03125 -0.00390625 0.109375 -0.00390625 0.109375 C 0.0117188 0.117188 0.0664062 0.121094 0.0859375 0.117188 C 0.121094 0.105469 0.167969 0.0976562 0.199219 0.0742188 C 0.226562 0.0507812 0.382812 -0.0117188 0.398438 -0.0117188 C 0.40625 -0.015625 0.417969 -0.015625 0.429688 -0.015625 C 0.460938 -0.0195312 0.476562 -0.0546875 0.5 -0.0585938 C 0.511719 -0.0585938 0.519531 -0.0546875 0.527344 -0.0585938 C 0.558594 -0.0625 0.582031 -0.0859375 0.613281 -0.0898438 C 0.648438 -0.09375 0.675781 -0.132812 0.703125 -0.136719 C 0.714844 -0.140625 0.722656 -0.136719 0.730469 -0.140625 C 0.734375 -0.140625 0.734375 -0.140625 0.738281 -0.144531 C 0.75 -0.144531 0.757812 -0.125 0.773438 -0.128906 C 0.808594 -0.132812 0.878906 -0.171875 0.898438 -0.175781 C 0.917969 -0.179688 0.9375 -0.179688 0.953125 -0.195312 C 0.960938 -0.195312 0.964844 -0.191406 0.972656 -0.195312 C 1.011719 -0.199219 1.054688 -0.230469 1.09375 -0.238281 C 1.121094 -0.238281 1.140625 -0.226562 1.160156 -0.226562 C 1.195312 -0.230469 1.21875 -0.269531 1.226562 -0.269531 C 1.230469 -0.269531 1.238281 -0.269531 1.25 -0.265625 Z M 0.78125 -1.398438 C 0.777344 -1.398438 0.777344 -1.402344 0.777344 -1.40625 C 0.78125 -1.402344 0.78125 -1.402344 0.78125 -1.398438 C 0.773438 -1.398438 0.761719 -1.394531 0.75 -1.394531 C 0.75 -1.394531 0.746094 -1.394531 0.742188 -1.398438 C 0.742188 -1.402344 0.742188 -1.410156 0.75 -1.410156 C 0.757812 -1.410156 0.769531 -1.402344 0.78125 -1.398438 Z M 0.429688 -0.734375 C 0.421875 -0.734375 0.40625 -0.730469 0.402344 -0.738281 C 0.402344 -0.742188 0.410156 -0.75 0.414062 -0.75 C 0.421875 -0.75 0.421875 -0.746094 0.429688 -0.734375 Z M 0.429688 -0.734375 "/></g></g></g><g fill="#000000" fill-opacity="1"><g transform="translate(17.623593, 22.016267)"><g><path d="M 0.328125 -0.355469 C 0.320312 -0.378906 0.3125 -0.386719 0.3125 -0.402344 C 0.308594 -0.414062 0.3125 -0.453125 0.308594 -0.480469 C 0.300781 -0.496094 0.289062 -0.511719 0.28125 -0.527344 C 0.28125 -0.535156 0.28125 -0.542969 0.277344 -0.550781 C 0.277344 -0.5625 0.261719 -0.570312 0.261719 -0.578125 C 0.257812 -0.59375 0.265625 -0.609375 0.261719 -0.621094 C 0.253906 -0.648438 0.242188 -0.671875 0.234375 -0.707031 C 0.195312 -0.847656 0.574219 -0.796875 0.527344 -0.960938 C 0.515625 -1.011719 0.433594 -1 0.355469 -0.976562 C 0.300781 -0.964844 0.25 -0.945312 0.222656 -0.9375 C 0.167969 -0.921875 0.15625 -0.9375 0.140625 -1.003906 C 0.132812 -1.027344 0.128906 -1.054688 0.125 -1.078125 C 0.09375 -1.191406 0.0507812 -1.300781 0.0234375 -1.414062 C 0.0195312 -1.429688 0.03125 -1.445312 0.046875 -1.449219 C 0.226562 -1.46875 0.402344 -1.507812 0.574219 -1.554688 C 0.609375 -1.570312 0.628906 -1.589844 0.625 -1.601562 C 0.621094 -1.609375 0.609375 -1.625 0.605469 -1.632812 C 0.605469 -1.644531 0.605469 -1.652344 0.601562 -1.664062 C 0.585938 -1.726562 0.492188 -1.710938 0.4375 -1.695312 C 0.425781 -1.691406 0.414062 -1.683594 0.398438 -1.679688 C 0.320312 -1.660156 0.238281 -1.648438 0.160156 -1.625 C 0.144531 -1.621094 0.128906 -1.617188 0.113281 -1.613281 C 0.0898438 -1.605469 0.0664062 -1.609375 0.0429688 -1.605469 C 0.03125 -1.601562 0.015625 -1.59375 0.00390625 -1.589844 C -0.0273438 -1.582031 -0.121094 -1.566406 -0.175781 -1.574219 C -0.179688 -1.574219 -0.179688 -1.574219 -0.183594 -1.574219 C -0.226562 -1.5625 -0.183594 -1.367188 -0.167969 -1.308594 C -0.164062 -1.296875 -0.15625 -1.277344 -0.152344 -1.265625 C -0.140625 -1.21875 -0.132812 -1.160156 -0.125 -1.121094 C -0.117188 -1.101562 -0.101562 -1.082031 -0.0976562 -1.058594 C -0.09375 -1.050781 -0.0976562 -1.035156 -0.09375 -1.027344 C -0.09375 -1.015625 -0.0898438 -1.003906 -0.0859375 -0.992188 C -0.078125 -0.976562 -0.0820312 -0.957031 -0.078125 -0.9375 C -0.0703125 -0.921875 -0.0664062 -0.902344 -0.0585938 -0.886719 C -0.0507812 -0.863281 -0.0703125 -0.84375 -0.0664062 -0.828125 C -0.0546875 -0.796875 -0.0117188 -0.765625 -0.00390625 -0.738281 C 0 -0.722656 -0.0117188 -0.699219 -0.0078125 -0.6875 C 0.0117188 -0.617188 0.03125 -0.550781 0.0507812 -0.484375 C 0.0507812 -0.476562 0.0507812 -0.472656 0.0546875 -0.464844 C 0.0585938 -0.445312 0.078125 -0.429688 0.0820312 -0.410156 C 0.0742188 -0.394531 0.0820312 -0.324219 0.0820312 -0.324219 C 0.121094 -0.183594 0.167969 -0.0351562 0.28125 -0.0664062 C 0.410156 -0.105469 0.535156 -0.152344 0.660156 -0.183594 C 0.71875 -0.199219 0.78125 -0.207031 0.839844 -0.222656 C 0.898438 -0.238281 0.9375 -0.253906 0.914062 -0.335938 C 0.902344 -0.386719 0.800781 -0.367188 0.738281 -0.355469 C 0.730469 -0.347656 0.71875 -0.339844 0.710938 -0.339844 C 0.699219 -0.335938 0.691406 -0.335938 0.679688 -0.332031 C 0.597656 -0.308594 0.503906 -0.269531 0.4375 -0.25 C 0.410156 -0.242188 0.378906 -0.238281 0.375 -0.253906 C 0.367188 -0.277344 0.378906 -0.308594 0.375 -0.324219 C 0.371094 -0.347656 0.351562 -0.347656 0.328125 -0.355469 Z M 0.1875 -0.40625 C 0.171875 -0.40625 0.164062 -0.414062 0.160156 -0.429688 C 0.160156 -0.433594 0.15625 -0.449219 0.167969 -0.453125 C 0.179688 -0.457031 0.1875 -0.4375 0.1875 -0.429688 C 0.191406 -0.421875 0.191406 -0.414062 0.191406 -0.402344 C 0.199219 -0.40625 0.210938 -0.382812 0.210938 -0.378906 C 0.214844 -0.371094 0.210938 -0.363281 0.210938 -0.347656 C 0.199219 -0.355469 0.191406 -0.367188 0.1875 -0.382812 C 0.1875 -0.386719 0.1875 -0.398438 0.1875 -0.40625 Z M 0.222656 -0.570312 C 0.207031 -0.582031 0.199219 -0.589844 0.199219 -0.597656 C 0.195312 -0.605469 0.195312 -0.617188 0.203125 -0.632812 C 0.214844 -0.625 0.21875 -0.617188 0.222656 -0.605469 C 0.222656 -0.601562 0.222656 -0.589844 0.222656 -0.570312 Z M 0.046875 -0.910156 C 0.0351562 -0.925781 0.0273438 -0.9375 0.0234375 -0.953125 C 0.0195312 -0.957031 0.015625 -0.976562 0.0234375 -0.976562 C 0.0234375 -0.976562 0.0351562 -0.976562 0.0351562 -0.972656 C 0.0351562 -0.953125 0.0429688 -0.933594 0.046875 -0.910156 Z M 0.0820312 -1.019531 C 0.078125 -1.023438 0.0703125 -1.03125 0.0664062 -1.039062 C 0.0664062 -1.039062 0.0664062 -1.050781 0.0703125 -1.054688 C 0.078125 -1.054688 0.0820312 -1.050781 0.0859375 -1.042969 C 0.0859375 -1.035156 0.0859375 -1.027344 0.0820312 -1.019531 Z M 0.101562 -0.660156 C 0.0976562 -0.652344 0.101562 -0.648438 0.0976562 -0.648438 C 0.09375 -0.648438 0.0898438 -0.652344 0.0898438 -0.65625 C 0.0898438 -0.660156 0.09375 -0.660156 0.09375 -0.660156 C 0.09375 -0.660156 0.0976562 -0.660156 0.101562 -0.660156 Z M 0.109375 -0.929688 C 0.109375 -0.929688 0.109375 -0.925781 0.109375 -0.925781 C 0.105469 -0.925781 0.101562 -0.929688 0.0976562 -0.933594 C 0.0976562 -0.933594 0.101562 -0.9375 0.101562 -0.9375 C 0.105469 -0.9375 0.109375 -0.933594 0.109375 -0.929688 Z M 0.132812 -0.402344 C 0.125 -0.402344 0.125 -0.402344 0.125 -0.40625 C 0.121094 -0.410156 0.125 -0.410156 0.125 -0.410156 C 0.128906 -0.410156 0.128906 -0.40625 0.132812 -0.402344 Z M 0.132812 -0.402344 "/></g></g></g><g fill="#000000" fill-opacity="1"><g transform="translate(19.009894, 21.617379)"><g><path d="M 0.875 -0.675781 C 0.816406 -0.679688 0.800781 -0.703125 0.75 -0.679688 C 0.699219 -0.660156 0.660156 -0.621094 0.613281 -0.59375 C 0.519531 -0.523438 0.425781 -0.453125 0.328125 -0.390625 C 0.292969 -0.378906 0.25 -0.488281 0.238281 -0.519531 C 0.222656 -0.554688 0.214844 -0.582031 0.195312 -0.621094 C 0.164062 -0.703125 0.121094 -0.722656 0.113281 -0.738281 C 0.101562 -0.761719 0.121094 -0.789062 0.113281 -0.808594 C 0.105469 -0.832031 0.101562 -0.855469 0.09375 -0.878906 C 0.0859375 -0.894531 0.0703125 -0.90625 0.0664062 -0.921875 C 0.0546875 -0.945312 0.0585938 -0.972656 0.046875 -0.992188 C 0.0429688 -1.011719 0.03125 -1.019531 0.0234375 -1.039062 C -0.015625 -1.144531 -0.0507812 -1.265625 -0.09375 -1.375 C -0.121094 -1.433594 -0.160156 -1.492188 -0.1875 -1.554688 C -0.191406 -1.566406 -0.195312 -1.574219 -0.199219 -1.589844 C -0.214844 -1.632812 -0.253906 -1.644531 -0.285156 -1.632812 C -0.339844 -1.609375 -0.433594 -1.539062 -0.414062 -1.492188 C -0.398438 -1.453125 -0.390625 -1.40625 -0.375 -1.363281 C -0.367188 -1.34375 -0.351562 -1.332031 -0.34375 -1.3125 C -0.324219 -1.230469 -0.28125 -1.09375 -0.261719 -1.050781 C -0.242188 -1.003906 -0.214844 -0.960938 -0.195312 -0.914062 C -0.171875 -0.859375 -0.160156 -0.800781 -0.136719 -0.746094 C -0.125 -0.714844 -0.0898438 -0.679688 -0.0742188 -0.644531 C -0.0664062 -0.617188 -0.0546875 -0.589844 -0.0429688 -0.5625 C -0.0273438 -0.515625 0 -0.472656 0.015625 -0.429688 C 0.0234375 -0.410156 0.0273438 -0.386719 0.0351562 -0.367188 C 0.0546875 -0.3125 0.09375 -0.265625 0.113281 -0.21875 C 0.121094 -0.195312 0.09375 -0.175781 0.101562 -0.15625 C 0.117188 -0.113281 0.238281 -0.113281 0.289062 -0.132812 C 0.382812 -0.183594 0.457031 -0.289062 0.550781 -0.328125 C 0.601562 -0.347656 0.640625 -0.414062 0.667969 -0.425781 C 0.675781 -0.429688 0.691406 -0.425781 0.699219 -0.429688 C 0.707031 -0.433594 0.710938 -0.449219 0.71875 -0.453125 C 0.796875 -0.496094 0.941406 -0.542969 0.898438 -0.640625 C 0.894531 -0.652344 0.886719 -0.664062 0.875 -0.675781 Z M 0.125 -0.628906 C 0.113281 -0.621094 0.109375 -0.632812 0.105469 -0.644531 C 0.101562 -0.652344 0.109375 -0.660156 0.113281 -0.660156 C 0.117188 -0.664062 0.121094 -0.65625 0.125 -0.648438 C 0.128906 -0.644531 0.128906 -0.636719 0.125 -0.628906 Z M 0.0585938 -0.820312 C 0.0585938 -0.816406 0.0585938 -0.8125 0.0546875 -0.8125 C 0.0429688 -0.808594 0.03125 -0.824219 0.0234375 -0.835938 C 0.0195312 -0.847656 0.015625 -0.863281 0.03125 -0.871094 C 0.0390625 -0.871094 0.0429688 -0.859375 0.0546875 -0.847656 C 0.0546875 -0.84375 0.0546875 -0.832031 0.0585938 -0.820312 Z M 0.0585938 -0.820312 "/></g></g></g><g fill="#000000" fill-opacity="1"><g transform="translate(20.385676, 21.027168)"><g><path d="M 0.234375 -0.425781 C 0.21875 -0.445312 0.210938 -0.453125 0.203125 -0.464844 C 0.195312 -0.476562 0.195312 -0.515625 0.179688 -0.542969 C 0.171875 -0.554688 0.152344 -0.566406 0.144531 -0.582031 C 0.140625 -0.585938 0.140625 -0.597656 0.136719 -0.605469 C 0.128906 -0.613281 0.113281 -0.617188 0.109375 -0.625 C 0.105469 -0.636719 0.109375 -0.65625 0.101562 -0.664062 C 0.0898438 -0.691406 0.0703125 -0.710938 0.0546875 -0.742188 C -0.0195312 -0.867188 0.359375 -0.914062 0.277344 -1.0625 C 0.25 -1.105469 0.175781 -1.074219 0.105469 -1.035156 C 0.0546875 -1.007812 0.0117188 -0.976562 -0.0117188 -0.964844 C -0.0625 -0.9375 -0.0742188 -0.945312 -0.109375 -1.007812 C -0.121094 -1.03125 -0.132812 -1.054688 -0.144531 -1.074219 C -0.199219 -1.175781 -0.265625 -1.273438 -0.324219 -1.375 C -0.332031 -1.390625 -0.324219 -1.410156 -0.308594 -1.417969 C -0.140625 -1.480469 0.0234375 -1.5625 0.179688 -1.648438 C 0.207031 -1.671875 0.222656 -1.695312 0.214844 -1.703125 C 0.210938 -1.714844 0.195312 -1.722656 0.191406 -1.734375 C 0.183594 -1.742188 0.183594 -1.75 0.175781 -1.761719 C 0.144531 -1.816406 0.0585938 -1.777344 0.0117188 -1.75 C 0 -1.746094 -0.0117188 -1.734375 -0.0234375 -1.726562 C -0.09375 -1.6875 -0.171875 -1.65625 -0.242188 -1.617188 C -0.257812 -1.609375 -0.269531 -1.597656 -0.28125 -1.59375 C -0.304688 -1.578125 -0.328125 -1.578125 -0.351562 -1.566406 C -0.363281 -1.558594 -0.375 -1.550781 -0.386719 -1.542969 C -0.414062 -1.527344 -0.5 -1.492188 -0.554688 -1.484375 C -0.558594 -1.484375 -0.558594 -1.484375 -0.5625 -1.484375 C -0.601562 -1.460938 -0.511719 -1.28125 -0.480469 -1.230469 C -0.476562 -1.214844 -0.464844 -1.203125 -0.457031 -1.1875 C -0.433594 -1.148438 -0.414062 -1.089844 -0.394531 -1.058594 C -0.382812 -1.039062 -0.363281 -1.027344 -0.351562 -1.003906 C -0.347656 -0.996094 -0.347656 -0.980469 -0.34375 -0.972656 C -0.339844 -0.960938 -0.332031 -0.953125 -0.324219 -0.941406 C -0.316406 -0.925781 -0.3125 -0.910156 -0.304688 -0.890625 C -0.292969 -0.875 -0.285156 -0.859375 -0.273438 -0.847656 C -0.261719 -0.824219 -0.273438 -0.800781 -0.265625 -0.785156 C -0.25 -0.757812 -0.199219 -0.738281 -0.183594 -0.714844 C -0.175781 -0.703125 -0.183594 -0.675781 -0.175781 -0.664062 C -0.140625 -0.601562 -0.101562 -0.542969 -0.0703125 -0.480469 C -0.0664062 -0.476562 -0.0664062 -0.46875 -0.0625 -0.464844 C -0.0507812 -0.445312 -0.0273438 -0.4375 -0.0195312 -0.417969 C -0.0234375 -0.398438 0 -0.332031 0 -0.335938 C 0.0703125 -0.207031 0.15625 -0.0742188 0.257812 -0.132812 C 0.371094 -0.203125 0.480469 -0.277344 0.59375 -0.339844 C 0.648438 -0.371094 0.707031 -0.394531 0.761719 -0.421875 C 0.8125 -0.453125 0.847656 -0.476562 0.804688 -0.550781 C 0.78125 -0.597656 0.6875 -0.550781 0.628906 -0.523438 C 0.625 -0.515625 0.613281 -0.507812 0.605469 -0.5 C 0.597656 -0.496094 0.585938 -0.492188 0.578125 -0.488281 C 0.503906 -0.445312 0.421875 -0.382812 0.363281 -0.351562 C 0.335938 -0.335938 0.308594 -0.324219 0.300781 -0.335938 C 0.289062 -0.359375 0.292969 -0.390625 0.285156 -0.40625 C 0.273438 -0.429688 0.253906 -0.421875 0.234375 -0.425781 Z M 0.0859375 -0.441406 C 0.0703125 -0.4375 0.0585938 -0.441406 0.0507812 -0.453125 C 0.046875 -0.460938 0.0429688 -0.472656 0.0507812 -0.480469 C 0.0625 -0.484375 0.0742188 -0.46875 0.078125 -0.464844 C 0.0820312 -0.457031 0.0859375 -0.449219 0.0859375 -0.4375 C 0.09375 -0.445312 0.113281 -0.421875 0.113281 -0.417969 C 0.117188 -0.410156 0.117188 -0.402344 0.117188 -0.386719 C 0.105469 -0.394531 0.0976562 -0.40625 0.0898438 -0.414062 C 0.0859375 -0.421875 0.0859375 -0.429688 0.0859375 -0.441406 Z M 0.078125 -0.605469 C 0.0585938 -0.613281 0.0507812 -0.621094 0.046875 -0.628906 C 0.0429688 -0.636719 0.0390625 -0.648438 0.0429688 -0.664062 C 0.0546875 -0.660156 0.0625 -0.648438 0.0664062 -0.644531 C 0.0703125 -0.636719 0.0742188 -0.625 0.078125 -0.605469 Z M -0.175781 -0.894531 C -0.195312 -0.90625 -0.203125 -0.914062 -0.210938 -0.929688 C -0.214844 -0.933594 -0.222656 -0.949219 -0.21875 -0.953125 C -0.214844 -0.953125 -0.207031 -0.953125 -0.203125 -0.953125 C -0.195312 -0.933594 -0.1875 -0.914062 -0.175781 -0.894531 Z M -0.167969 -1.007812 C -0.175781 -1.011719 -0.183594 -1.015625 -0.1875 -1.023438 C -0.1875 -1.027344 -0.195312 -1.035156 -0.1875 -1.039062 C -0.183594 -1.042969 -0.175781 -1.039062 -0.171875 -1.03125 C -0.167969 -1.023438 -0.167969 -1.019531 -0.167969 -1.007812 Z M -0.0625 -0.664062 C -0.0664062 -0.65625 -0.0585938 -0.65625 -0.0664062 -0.652344 C -0.0664062 -0.652344 -0.0703125 -0.652344 -0.0742188 -0.65625 C -0.0703125 -0.660156 -0.0703125 -0.664062 -0.0703125 -0.664062 C -0.0703125 -0.664062 -0.0664062 -0.664062 -0.0625 -0.664062 Z M -0.121094 -0.929688 C -0.121094 -0.925781 -0.121094 -0.921875 -0.121094 -0.921875 C -0.125 -0.925781 -0.128906 -0.925781 -0.132812 -0.929688 C -0.132812 -0.929688 -0.128906 -0.9375 -0.128906 -0.9375 C -0.125 -0.9375 -0.121094 -0.933594 -0.121094 -0.929688 Z M 0.0273438 -0.421875 C 0.0234375 -0.421875 0.0234375 -0.421875 0.0195312 -0.425781 C 0.0234375 -0.429688 0.0273438 -0.425781 0.0273438 -0.421875 Z M 0.0273438 -0.421875 "/></g></g></g></svg>