<svg xmlns="http://www.w3.org/2000/svg" xmlns:xlink="http://www.w3.org/1999/xlink" width="4000" zoomAndPan="magnify" viewBox="0 0 3000 2999.999989" height="4000" preserveAspectRatio="xMidYMid meet" version="1.0"><defs><g/><clipPath id="id1"><path d="M 432 903 L 543 903 L 543 1010 L 432 1010 Z M 432 903 " clip-rule="nonzero"/></clipPath><clipPath id="id2"><path d="M 578.742188 1042.269531 L 422.796875 1010.460938 L 447.03125 891.644531 L 602.980469 923.453125 Z M 578.742188 1042.269531 " clip-rule="nonzero"/></clipPath><clipPath id="id3"><path d="M 578.742188 1042.269531 L 422.796875 1010.460938 L 447.03125 891.644531 L 602.980469 923.453125 Z M 578.742188 1042.269531 " clip-rule="nonzero"/></clipPath><clipPath id="id4"><path d="M 506 955 L 587 955 L 587 1035 L 506 1035 Z M 506 955 " clip-rule="nonzero"/></clipPath><clipPath id="id5"><path d="M 578.742188 1042.269531 L 422.796875 1010.460938 L 447.03125 891.644531 L 602.980469 923.453125 Z M 578.742188 1042.269531 " clip-rule="nonzero"/></clipPath><clipPath id="id6"><path d="M 578.742188 1042.269531 L 422.796875 1010.460938 L 447.03125 891.644531 L 602.980469 923.453125 Z M 578.742188 1042.269531 " clip-rule="nonzero"/></clipPath><clipPath id="id7"><path d="M 428 539 L 619 539 L 619 921 L 428 921 Z M 428 539 " clip-rule="nonzero"/></clipPath><clipPath id="id8"><path d="M 676.222656 564.519531 L 598.96875 943.246094 L 405.894531 903.859375 L 483.148438 525.132812 Z M 676.222656 564.519531 " clip-rule="nonzero"/></clipPath><clipPath id="id9"><path d="M 676.222656 564.519531 L 598.96875 943.246094 L 405.894531 903.859375 L 483.148438 525.132812 Z M 676.222656 564.519531 " clip-rule="nonzero"/></clipPath><clipPath id="id10"><path d="M 2551 469 L 2701 469 L 2701 619 L 2551 619 Z M 2551 469 " clip-rule="nonzero"/></clipPath><clipPath id="id11"><path d="M 2593.453125 427.429688 L 2742.527344 511.203125 L 2658.753906 660.277344 L 2509.679688 576.503906 Z M 2593.453125 427.429688 " clip-rule="nonzero"/></clipPath><clipPath id="id12"><path d="M 2593.453125 427.429688 L 2742.527344 511.203125 L 2658.753906 660.277344 L 2509.679688 576.503906 Z M 2593.453125 427.429688 " clip-rule="nonzero"/></clipPath></defs><g fill="#d5fffe" fill-opacity="1"><g transform="translate(117.680698, 945.320155)"><g><path d="M 687.597656 -926.394531 C 679.195312 -914.792969 644.394531 -911.59375 629.996094 -910.792969 C 570.394531 -907.996094 491.996094 -915.996094 408.398438 -917.59375 C -40.800781 -925.996094 -75.597656 -647.996094 94.800781 -415.597656 C 78 -416.398438 52 -417.597656 41.601562 -411.597656 C 30.398438 -405.199219 27.601562 -391.199219 40.398438 -380.796875 C 58.800781 -365.597656 74 -374.796875 74.800781 -388.796875 C 86.398438 -389.996094 101.199219 -391.199219 112.800781 -391.597656 C 168.398438 -319.199219 194 -292.398438 214 -227.597656 C 210.398438 -184.398438 200 -54 208.398438 -11.601562 C 213.597656 16 241.199219 24 253.597656 -13.199219 C 268.796875 -62.398438 269.199219 -158 240 -238.398438 C 241.199219 -290.398438 242.398438 -342.398438 244 -394.398438 C 294.796875 -394.398438 329.597656 -395.996094 369.597656 -389.199219 C 387.597656 -385.996094 386.796875 -415.199219 369.199219 -411.199219 C 327.199219 -401.597656 287.597656 -406.398438 244.398438 -407.597656 C 249.597656 -555.597656 256 -705.59375 275.199219 -821.59375 C 279.597656 -847.59375 238 -847.195312 242 -821.59375 C 260 -714.796875 242.398438 -535.996094 230.398438 -408.398438 C 76.398438 -416.796875 129.597656 -413.996094 118 -414.398438 C 118 -414.796875 117.597656 -414.796875 117.199219 -414.796875 C -78.398438 -651.195312 -15.601562 -921.59375 407.597656 -897.996094 C 496.398438 -893.195312 572.394531 -881.996094 630.796875 -881.996094 C 658.394531 -882.394531 698.796875 -884.394531 714.796875 -907.195312 C 727.59375 -924.792969 700.394531 -944.394531 687.597656 -926.394531 Z M 229.199219 -393.996094 C 225.597656 -357.597656 222.398438 -321.199219 218.796875 -284.796875 C 199.199219 -320.398438 178 -343.199219 135.597656 -392.796875 C 173.199219 -393.996094 222.796875 -393.996094 229.199219 -393.996094 Z M 229.199219 -393.996094 "/></g></g></g><g fill="#d5fffe" fill-opacity="1"><g transform="translate(558.077205, 945.320155)"><g><path d="M 245.199219 -349.996094 C 233.199219 -322.398438 220.796875 -295.199219 206 -269.199219 C 186.398438 -234.398438 156.398438 -188.398438 120.398438 -169.597656 C 79.199219 -148.800781 54 -160.800781 70 -234.398438 C 86.398438 -306.398438 94.398438 -323.996094 44.800781 -347.996094 C 39.199219 -350.796875 33.601562 -353.199219 28.398438 -355.597656 C 36.398438 -366.398438 43.601562 -377.597656 48 -391.199219 C 63.199219 -438.398438 18 -462.398438 -15.601562 -423.199219 C -34 -401.597656 -31.601562 -366.796875 -10 -346.398438 C 0.800781 -337.199219 16.398438 -327.199219 30.398438 -321.199219 C 58.800781 -309.597656 43.601562 -300.398438 40.800781 -238.398438 C 37.199219 -152 79.199219 -135.597656 125.199219 -161.199219 C 161.597656 -182.398438 190.796875 -228.796875 212.398438 -265.597656 C 225.597656 -288.796875 255.199219 -345.199219 255.199219 -345.597656 C 258.398438 -352.398438 248.398438 -357.597656 245.199219 -349.996094 Z M -1.199219 -411.597656 C 18 -438.796875 44.800781 -427.597656 33.601562 -395.996094 C 28.800781 -383.996094 19.601562 -373.199219 8.398438 -365.199219 C -8 -375.996094 -10.800781 -398.796875 -1.199219 -411.597656 Z M -1.199219 -411.597656 "/></g></g></g><g fill="#d5fffe" fill-opacity="1"><g transform="translate(802.075257, 945.320155)"><g><path d="M 272 -349.597656 C 253.199219 -306 224.796875 -254 178 -256.398438 C 128 -259.199219 137.597656 -335.199219 130.800781 -376.398438 C 125.199219 -407.597656 105.597656 -404.796875 94.800781 -377.597656 C 83.597656 -384.796875 71.199219 -389.597656 57.601562 -389.597656 C -14 -388.796875 -42 -241.199219 16.800781 -236.398438 C 54 -233.199219 75.199219 -289.597656 96.800781 -338.796875 C 112 -338.398438 119.597656 -355.996094 109.199219 -366.796875 C 111.199219 -370.398438 112 -372.398438 112.800781 -374.398438 C 112.800781 -373.996094 113.199219 -373.597656 113.199219 -373.199219 C 121.199219 -325.199219 122.398438 -250.796875 177.199219 -248.796875 C 228.796875 -246.796875 257.597656 -299.199219 284.796875 -342.796875 C 290.796875 -351.597656 276 -359.199219 272 -349.597656 Z M 20 -246 C -25.601562 -247.597656 8.800781 -369.996094 56.398438 -363.597656 C 66.398438 -361.996094 76.398438 -354.398438 84.398438 -344.398438 C 75.597656 -311.597656 55.601562 -244.796875 20 -246 Z M 20 -246 "/></g></g></g><g fill="#d5fffe" fill-opacity="1"><g transform="translate(1073.673112, 945.320155)"><g><path d="M 365.199219 -354.398438 C 353.996094 -315.199219 336.796875 -274 313.199219 -239.597656 C 284 -198.398438 244 -174.398438 214.398438 -212 C 166.800781 -272.398438 196.398438 -423.199219 131.597656 -435.199219 C 59.199219 -448.398438 45.199219 -289.199219 26.398438 -224.796875 C 23.199219 -256.398438 25.199219 -335.597656 19.601562 -363.996094 C 16.398438 -378.398438 -5.199219 -373.996094 -2.398438 -359.597656 C 4.398438 -327.597656 -9.601562 -272 -6.800781 -225.597656 C -3.199219 -163.199219 38 -160.800781 53.199219 -203.199219 C 75.597656 -266.398438 73.597656 -420.796875 128 -420.398438 C 179.597656 -419.996094 164 -264.796875 209.597656 -208 C 241.597656 -167.597656 285.199219 -190 319.199219 -235.199219 C 343.199219 -267.597656 363.996094 -311.199219 378.796875 -348.796875 C 383.199219 -359.996094 367.996094 -363.996094 365.199219 -354.398438 Z M 365.199219 -354.398438 "/></g></g></g><g fill="#d5fffe" fill-opacity="1"><g transform="translate(1437.670198, 945.320155)"><g><path d="M 232.398438 -352.796875 C 208.398438 -295.199219 151.597656 -247.597656 95.199219 -245.597656 C 18 -242.796875 22.800781 -364.398438 47.601562 -409.597656 C 68 -447.996094 108.800781 -445.195312 115.199219 -409.996094 C 120 -385.996094 103.199219 -363.597656 81.597656 -364.796875 C 72.800781 -365.199219 66.800781 -356.398438 70.398438 -348.796875 C 72.800781 -342.796875 79.199219 -340.796875 85.199219 -342.796875 C 120 -354.398438 130 -383.996094 126 -411.996094 C 119.199219 -459.996094 61.199219 -470.398438 25.199219 -424.796875 C -28.800781 -353.996094 3.199219 -227.597656 95.597656 -234.796875 C 157.199219 -239.597656 213.597656 -290.796875 245.597656 -346.398438 C 250.796875 -355.199219 236.398438 -362.398438 232.398438 -352.796875 Z M 232.398438 -352.796875 "/></g></g></g><g fill="#d5fffe" fill-opacity="1"><g transform="translate(1669.668295, 945.320155)"><g><path d="M 166.800781 -352.796875 C 160.398438 -338.398438 153.199219 -324.398438 144.800781 -311.199219 C 102.800781 -244.796875 33.199219 -246 22.800781 -321.199219 C 21.199219 -335.199219 20.800781 -349.597656 22 -363.996094 C 35.199219 -355.199219 51.199219 -363.597656 50.398438 -377.996094 C 50 -384.796875 45.601562 -389.996094 40 -392.398438 C 35.199219 -399.996094 30.800781 -415.597656 28.398438 -421.199219 C 20.800781 -436.796875 0.398438 -434.796875 -2 -415.996094 C -6 -385.597656 -3.199219 -347.597656 3.601562 -317.597656 C 25.601562 -230.398438 102.800781 -231.199219 152.398438 -306.398438 C 161.199219 -320.398438 175.597656 -345.996094 177.199219 -347.996094 C 180.398438 -354.398438 170 -359.199219 166.800781 -352.796875 Z M 32.800781 -474.398438 C 32.800781 -461.597656 24.800781 -451.195312 15.601562 -451.195312 C 6 -451.195312 -2 -461.597656 -2 -474.398438 C -2 -486.796875 6 -497.195312 15.601562 -497.195312 C 24.800781 -497.195312 32.800781 -486.796875 32.800781 -474.398438 Z M 32.800781 -474.398438 "/></g></g></g><g fill="#d5fffe" fill-opacity="1"><g transform="translate(1835.666942, 945.320155)"><g><path d="M 234.398438 -350.398438 C 215.199219 -304.796875 178.800781 -260.398438 130.800781 -246.796875 C 80 -232 26.398438 -248.796875 21.199219 -305.597656 C 20.800781 -312.796875 20.800781 -319.996094 22 -327.199219 C 47.601562 -327.199219 76.398438 -330.796875 99.199219 -342.398438 C 150 -369.199219 139.199219 -421.199219 92.800781 -427.199219 C 26.800781 -435.199219 -15.601562 -365.199219 0 -302 C 15.601562 -240.796875 76 -222.398438 132.398438 -240.398438 C 183.199219 -256 219.597656 -298.796875 247.597656 -343.597656 C 253.199219 -352.796875 238.398438 -360.398438 234.398438 -350.398438 Z M 88.398438 -393.996094 C 106 -391.199219 96.398438 -380.398438 83.199219 -373.597656 C 68 -365.996094 49.601562 -362.796875 32.800781 -361.597656 C 44.800781 -384.398438 63.597656 -397.597656 88.398438 -393.996094 Z M 88.398438 -393.996094 "/></g></g></g><g fill="#d5fffe" fill-opacity="1"><g transform="translate(2069.665102, 945.320155)"><g><path d="M 300 -355.996094 C 244.398438 -263.597656 186 -84.398438 110.398438 -89.597656 C -33.199219 -99.199219 18.800781 -805.59375 169.597656 -817.996094 C 266.398438 -825.996094 219.597656 -463.597656 46.398438 -378.796875 C 26 -369.199219 45.601562 -337.597656 64.398438 -355.996094 C 255.199219 -538.796875 283.597656 -844.792969 169.199219 -840.394531 C -32 -831.996094 -64 -81.199219 109.199219 -76.398438 C 189.597656 -74.398438 242 -236.796875 311.597656 -347.199219 C 318.398438 -357.996094 305.199219 -365.199219 300 -355.996094 Z M 300 -355.996094 "/></g></g></g><g fill="#d5fffe" fill-opacity="1"><g transform="translate(2368.462816, 945.320155)"><g><path d="M 234.398438 -350.398438 C 215.199219 -304.796875 178.800781 -260.398438 130.800781 -246.796875 C 80 -232 26.398438 -248.796875 21.199219 -305.597656 C 20.800781 -312.796875 20.800781 -319.996094 22 -327.199219 C 47.601562 -327.199219 76.398438 -330.796875 99.199219 -342.398438 C 150 -369.199219 139.199219 -421.199219 92.800781 -427.199219 C 26.800781 -435.199219 -15.601562 -365.199219 0 -302 C 15.601562 -240.796875 76 -222.398438 132.398438 -240.398438 C 183.199219 -256 219.597656 -298.796875 247.597656 -343.597656 C 253.199219 -352.796875 238.398438 -360.398438 234.398438 -350.398438 Z M 88.398438 -393.996094 C 106 -391.199219 96.398438 -380.398438 83.199219 -373.597656 C 68 -365.996094 49.601562 -362.796875 32.800781 -361.597656 C 44.800781 -384.398438 63.597656 -397.597656 88.398438 -393.996094 Z M 88.398438 -393.996094 "/></g></g></g><g clip-path="url(#id1)"><g clip-path="url(#id2)"><g clip-path="url(#id3)"><path fill="#d5fffe" d="M 450.683594 994.457031 L 523.625 1009.335938 L 455.378906 985.863281 L 445.339844 966.210938 L 502.414062 927.394531 L 542.527344 969.492188 L 507.136719 903.949219 L 432.386719 963.570312 L 450.683594 994.457031 " fill-opacity="1" fill-rule="nonzero"/></g></g></g><g clip-path="url(#id4)"><g clip-path="url(#id5)"><g clip-path="url(#id6)"><path fill="#d5fffe" d="M 541.617188 998.101562 L 538.648438 1034.046875 L 549.992188 999.808594 L 586.753906 1003.046875 L 551.664062 991.628906 L 554.636719 955.679688 L 543.289062 989.917969 L 506.53125 986.683594 L 541.617188 998.101562 " fill-opacity="1" fill-rule="nonzero"/></g></g></g><g clip-path="url(#id7)"><g clip-path="url(#id8)"><g clip-path="url(#id9)"><path fill="#d5fffe" d="M 504.34375 918.785156 C 478.492188 913.511719 458.449219 899.816406 444.226562 877.710938 C 430 855.597656 425.742188 830.570312 431.441406 802.632812 C 437.371094 773.570312 455.128906 743.902344 484.726562 713.617188 C 497.988281 700.257812 511.277344 686.78125 524.585938 673.203125 C 537.664062 658.40625 545.628906 644.082031 548.453125 630.222656 C 551.464844 615.472656 550.464844 600.828125 545.46875 586.308594 C 542.609375 577.34375 536.167969 564.15625 526.144531 546.742188 C 525.652344 545.710938 525.496094 544.746094 525.679688 543.851562 C 526.316406 540.726562 528.207031 539.480469 531.359375 540.125 C 532.480469 540.351562 533.398438 541.007812 534.117188 542.082031 C 544.636719 560.523438 551.4375 574.832031 554.515625 585.011719 C 559.691406 600.964844 560.617188 617.101562 557.285156 633.421875 C 552.910156 654.878906 541.539062 676.1875 523.167969 697.359375 C 506.5625 714.457031 489.851562 731.539062 473.023438 748.601562 C 454.886719 768.644531 443.921875 787.945312 440.136719 806.5 C 435.257812 830.417969 439.519531 851.429688 452.921875 869.53125 C 465.5625 886.777344 483.796875 897.832031 507.628906 902.691406 C 531.234375 907.507812 552.589844 904.410156 571.695312 893.410156 C 590.800781 882.398438 602.609375 865.835938 607.121094 843.707031 C 609.3125 832.976562 609.191406 824.101562 606.757812 817.085938 C 604.324219 810.070312 600.410156 806.015625 595.011719 804.914062 C 592.089844 804.320312 589.59375 804.796875 587.519531 806.355469 C 585.445312 807.910156 583.433594 809.417969 581.5 810.890625 C 578.164062 813.464844 574.472656 814.34375 570.425781 813.519531 C 566.601562 812.738281 563.671875 810.746094 561.636719 807.535156 C 559.597656 804.324219 558.96875 800.816406 559.742188 797.019531 C 560.792969 791.875 563.835938 787.839844 568.886719 784.914062 C 574.519531 781.40625 581.378906 780.480469 589.476562 782.128906 C 600.265625 784.332031 608.289062 791.210938 613.546875 802.757812 C 618.796875 814.308594 619.695312 828.574219 616.230469 845.5625 C 611.167969 870.375 597.605469 890.074219 575.546875 904.671875 C 553.480469 919.257812 529.746094 923.96875 504.34375 918.785156 Z M 504.34375 918.785156 " fill-opacity="1" fill-rule="nonzero"/></g></g></g><g clip-path="url(#id10)"><g clip-path="url(#id11)"><g clip-path="url(#id12)"><path fill="#d5fffe" d="M 2607.445312 577.070312 C 2610.476562 558.457031 2605.164062 539.515625 2592.894531 525.191406 C 2611.507812 528.21875 2630.453125 522.90625 2644.773438 510.640625 C 2641.746094 529.253906 2647.058594 548.195312 2659.324219 562.523438 C 2640.710938 559.492188 2621.769531 564.804688 2607.445312 577.070312 Z M 2674.9375 567.222656 C 2653.136719 551.515625 2645.210938 523.257812 2655.667969 498.511719 L 2667.996094 469.316406 L 2649.472656 495.03125 C 2633.769531 516.832031 2605.515625 524.753906 2580.765625 514.300781 L 2551.582031 501.980469 L 2577.285156 520.492188 C 2599.082031 536.199219 2607.007812 564.453125 2596.554688 589.203125 L 2584.222656 618.390625 L 2602.746094 592.683594 C 2618.449219 570.882812 2646.703125 562.957031 2671.457031 573.414062 L 2700.640625 585.742188 L 2674.9375 567.222656 " fill-opacity="1" fill-rule="nonzero"/></g></g></g></svg>